<svg width="20" height="20" viewBox="0 0 20 20" fill="none" xmlns="http://www.w3.org/2000/svg">
<path d="M10 16C11.3333 16 12.6 15.75 13.8 15.25C15 14.75 16.0667 14.0333 17 13.1L15.95 12.05C15.7667 12.2333 15.5875 12.3958 15.4125 12.5375C15.2375 12.6792 15.05 12.8167 14.85 12.95L14 11.5V9H15V8H9.4L7.65 5H4L5 5.75L3.5 7.5L4.45 8.5L6 7.5V11.5L5.15 12.95C4.95 12.8167 4.7625 12.6792 4.5875 12.5375C4.4125 12.3958 4.23333 12.2333 4.05 12.05L3 13.1C3.93333 14.0333 5 14.75 6.2 15.25C7.4 15.75 8.66667 16 10 16ZM10 14.5C9.36667 14.5 8.75417 14.4375 8.1625 14.3125C7.57083 14.1875 7 13.9833 6.45 13.7L7.3 12.25C7.73333 12.4167 8.17917 12.5375 8.6375 12.6125C9.09583 12.6875 9.55 12.725 10 12.725C10.4667 12.725 10.925 12.6875 11.375 12.6125C11.825 12.5375 12.2667 12.4167 12.7 12.25L13.55 13.7C13 13.95 12.4292 14.1458 11.8375 14.2875C11.2458 14.4292 10.6333 14.5 10 14.5ZM2 20C1.45 20 0.979167 19.8042 0.5875 19.4125C0.195833 19.0208 0 18.55 0 18V2C0 1.45 0.195833 0.979167 0.5875 0.5875C0.979167 0.195833 1.45 0 2 0H18C18.55 0 19.0208 0.195833 19.4125 0.5875C19.8042 0.979167 20 1.45 20 2V18C20 18.55 19.8042 19.0208 19.4125 19.4125C19.0208 19.8042 18.55 20 18 20H2ZM2 18H18V2H2V18Z" fill="#1C1B1F"/>
</svg>
