<svg width="295" height="293" viewBox="0 0 295 293" fill="none" xmlns="http://www.w3.org/2000/svg">
<g filter="url(#filter0_d_65_140)">
<path d="M107.918 284.706L102.224 239.153C99.1392 237.967 96.2329 236.543 93.5044 234.882C90.776 233.222 88.1069 231.442 85.4971 229.544L43.1471 247.338L4 179.721L40.6559 151.962C40.4186 150.301 40.3 148.7 40.3 147.157V137.549C40.3 136.006 40.4186 134.405 40.6559 132.744L4 104.985L43.1471 37.3677L85.4971 55.1618C88.1069 53.2637 90.8353 51.4843 93.6824 49.8235C96.5294 48.1627 99.3765 46.7392 102.224 45.5529L107.918 0H186.212L191.906 45.5529C194.99 46.7392 197.897 48.1627 200.625 49.8235C203.353 51.4843 206.023 53.2637 208.632 55.1618L250.982 37.3677L290.129 104.985L253.474 132.744C253.711 134.405 253.829 136.006 253.829 137.549V147.157C253.829 148.7 253.592 150.301 253.118 151.962L289.774 179.721L250.627 247.338L208.632 229.544C206.023 231.442 203.294 233.222 200.447 234.882C197.6 236.543 194.753 237.967 191.906 239.153L186.212 284.706H107.918ZM132.829 256.235H160.944L165.926 218.512C173.281 216.614 180.102 213.826 186.39 210.149C192.677 206.471 198.43 202.023 203.65 196.803L238.882 211.394L252.762 187.194L222.156 164.062C223.342 160.74 224.173 157.241 224.647 153.563C225.122 149.886 225.359 146.149 225.359 142.353C225.359 138.557 225.122 134.82 224.647 131.143C224.173 127.465 223.342 123.966 222.156 120.644L252.762 97.5118L238.882 73.3118L203.65 88.2588C198.43 82.802 192.677 78.2348 186.39 74.5574C180.102 70.8799 173.281 68.0922 165.926 66.1941L161.3 28.4706H133.185L128.203 66.1941C120.848 68.0922 114.027 70.8799 107.74 74.5574C101.452 78.2348 95.699 82.6833 90.4794 87.903L55.2471 73.3118L41.3677 97.5118L71.9735 120.288C70.7873 123.847 69.9569 127.406 69.4824 130.965C69.0079 134.524 68.7706 138.32 68.7706 142.353C68.7706 146.149 69.0079 149.826 69.4824 153.385C69.9569 156.944 70.7873 160.503 71.9735 164.062L41.3677 187.194L55.2471 211.394L90.4794 196.447C95.699 201.904 101.452 206.471 107.74 210.149C114.027 213.826 120.848 216.614 128.203 218.512L132.829 256.235ZM147.776 192.176C161.537 192.176 173.281 187.313 183.009 177.585C192.736 167.858 197.6 156.114 197.6 142.353C197.6 128.592 192.736 116.848 183.009 107.121C173.281 97.3931 161.537 92.5294 147.776 92.5294C133.778 92.5294 121.975 97.3931 112.366 107.121C102.757 116.848 97.953 128.592 97.953 142.353C97.953 156.114 102.757 167.858 112.366 177.585C121.975 187.313 133.778 192.176 147.776 192.176Z" fill="#1C1C1C"/>
</g>
<defs>
<filter id="filter0_d_65_140" x="0" y="0" width="294.13" height="292.706" filterUnits="userSpaceOnUse" color-interpolation-filters="sRGB">
<feFlood flood-opacity="0" result="BackgroundImageFix"/>
<feColorMatrix in="SourceAlpha" type="matrix" values="0 0 0 0 0 0 0 0 0 0 0 0 0 0 0 0 0 0 127 0" result="hardAlpha"/>
<feOffset dy="4"/>
<feGaussianBlur stdDeviation="2"/>
<feComposite in2="hardAlpha" operator="out"/>
<feColorMatrix type="matrix" values="0 0 0 0 0 0 0 0 0 0 0 0 0 0 0 0 0 0 0.25 0"/>
<feBlend mode="normal" in2="BackgroundImageFix" result="effect1_dropShadow_65_140"/>
<feBlend mode="normal" in="SourceGraphic" in2="effect1_dropShadow_65_140" result="shape"/>
</filter>
</defs>
</svg>
