<svg width="227" height="293" viewBox="0 0 227 293" fill="none" xmlns="http://www.w3.org/2000/svg">
<g filter="url(#filter0_d_2_2075)">
<path d="M39.9177 284.706L34.2235 239.153C31.1392 237.967 28.2329 236.543 25.5044 234.882C22.776 233.222 20.1069 231.442 17.4971 229.544L-24.8529 247.338L-64 179.721L-27.3441 151.962C-27.5814 150.301 -27.7 148.7 -27.7 147.157V137.549C-27.7 136.006 -27.5814 134.405 -27.3441 132.744L-64 104.985L-24.8529 37.3676L17.4971 55.1618C20.1069 53.2637 22.8353 51.4843 25.6824 49.8235C28.5294 48.1628 31.3765 46.7392 34.2235 45.5529L39.9177 0H118.212L123.906 45.5529C126.99 46.7392 129.897 48.1628 132.625 49.8235C135.353 51.4843 138.023 53.2637 140.632 55.1618L182.982 37.3676L222.129 104.985L185.474 132.744C185.711 134.405 185.829 136.006 185.829 137.549V147.157C185.829 148.7 185.592 150.301 185.118 151.962L221.774 179.721L182.627 247.338L140.632 229.544C138.023 231.442 135.294 233.222 132.447 234.882C129.6 236.543 126.753 237.967 123.906 239.153L118.212 284.706H39.9177ZM64.8294 256.235H92.9442L97.9265 218.512C105.281 216.614 112.102 213.826 118.39 210.149C124.677 206.471 130.43 202.023 135.65 196.803L170.882 211.394L184.762 187.194L154.156 164.062C155.342 160.74 156.173 157.241 156.647 153.563C157.122 149.886 157.359 146.149 157.359 142.353C157.359 138.557 157.122 134.82 156.647 131.143C156.173 127.465 155.342 123.966 154.156 120.644L184.762 97.5118L170.882 73.3118L135.65 88.2588C130.43 82.802 124.677 78.2348 118.39 74.5574C112.102 70.8799 105.281 68.0922 97.9265 66.1941L93.3 28.4706H65.1853L60.203 66.1941C52.8481 68.0922 46.027 70.8799 39.7397 74.5574C33.4525 78.2348 27.699 82.6833 22.4794 87.903L-12.7529 73.3118L-26.6323 97.5118L3.97354 120.288C2.78727 123.847 1.95687 127.406 1.48236 130.965C1.00785 134.524 0.770599 138.32 0.770599 142.353C0.770599 146.149 1.00785 149.826 1.48236 153.385C1.95687 156.944 2.78727 160.503 3.97354 164.062L-26.6323 187.194L-12.7529 211.394L22.4794 196.447C27.699 201.904 33.4525 206.471 39.7397 210.149C46.027 213.826 52.8481 216.614 60.203 218.512L64.8294 256.235ZM79.7765 192.176C93.5373 192.176 105.281 187.313 115.009 177.585C124.736 167.858 129.6 156.114 129.6 142.353C129.6 128.592 124.736 116.848 115.009 107.121C105.281 97.3932 93.5373 92.5294 79.7765 92.5294C65.7785 92.5294 53.975 97.3932 44.3662 107.121C34.7574 116.848 29.953 128.592 29.953 142.353C29.953 156.114 34.7574 167.858 44.3662 177.585C53.975 187.313 65.7785 192.176 79.7765 192.176Z" fill="#1C1C1C"/>
</g>
<defs>
<filter id="filter0_d_2_2075" x="-68" y="0" width="294.129" height="292.706" filterUnits="userSpaceOnUse" color-interpolation-filters="sRGB">
<feFlood flood-opacity="0" result="BackgroundImageFix"/>
<feColorMatrix in="SourceAlpha" type="matrix" values="0 0 0 0 0 0 0 0 0 0 0 0 0 0 0 0 0 0 127 0" result="hardAlpha"/>
<feOffset dy="4"/>
<feGaussianBlur stdDeviation="2"/>
<feComposite in2="hardAlpha" operator="out"/>
<feColorMatrix type="matrix" values="0 0 0 0 0 0 0 0 0 0 0 0 0 0 0 0 0 0 0.25 0"/>
<feBlend mode="normal" in2="BackgroundImageFix" result="effect1_dropShadow_2_2075"/>
<feBlend mode="normal" in="SourceGraphic" in2="effect1_dropShadow_2_2075" result="shape"/>
</filter>
</defs>
</svg>
