<svg width="185" height="37" viewBox="0 0 185 37" fill="none" xmlns="http://www.w3.org/2000/svg">
<path d="M15.7378 2.08342C16.7316 1.50968 17.9559 1.50968 18.9497 2.08342L30.758 8.90096C31.7517 9.47469 32.3639 10.535 32.3639 11.6825V25.3175C32.3639 26.465 31.7517 27.5253 30.758 28.099L18.9497 34.9166C17.9559 35.4903 16.7316 35.4903 15.7378 34.9166L3.92952 28.099C2.93579 27.5253 2.32362 26.465 2.32362 25.3175V11.6825C2.32362 10.535 2.93579 9.47469 3.92952 8.90096L15.7378 2.08342Z" fill="#0D0C0C"/>
<path d="M9.61541 23.5987L4.49658 18.4799L9.61541 13.3611L10.8098 14.5555L6.88537 18.4799L10.8098 22.4043L9.61541 23.5987Z" fill="white"/>
<path d="M19.4312 13.3611L16.6318 23.7611H15.0752L17.8746 13.3611H19.4312Z" fill="white"/>
<path d="M24.8914 23.5987L30.0103 18.4799L24.8914 13.3611L23.697 14.5555L27.6215 18.4799L23.697 22.4043L24.8914 23.5987Z" fill="white"/>
<path d="M48.4033 17.93C48.4033 18.7933 48.1909 19.547 47.7661 20.1911C47.3413 20.8352 46.7246 21.3354 45.9161 21.6917C45.1213 22.0343 44.1483 22.2056 42.9972 22.2056C42.4902 22.2056 41.99 22.1713 41.4966 22.1028C41.017 22.0343 40.5511 21.9383 40.0989 21.815C39.6603 21.678 39.2424 21.5135 38.845 21.3217V18.4233C39.5439 18.7248 40.2633 19.0057 41.0033 19.2661C41.757 19.5128 42.5039 19.6361 43.2439 19.6361C43.7509 19.6361 44.1552 19.5676 44.4566 19.4306C44.7718 19.2935 44.9979 19.1085 45.135 18.8756C45.2857 18.6426 45.3611 18.3754 45.3611 18.0739C45.3611 17.7039 45.2309 17.3887 44.9705 17.1283C44.7239 16.868 44.3881 16.6281 43.9633 16.4089C43.5385 16.1759 43.052 15.9293 42.5039 15.6689C42.1613 15.5044 41.7913 15.3126 41.3939 15.0933C40.9965 14.8604 40.6127 14.5794 40.2427 14.2506C39.8865 13.908 39.5918 13.4969 39.3589 13.0172C39.1259 12.5376 39.0094 11.962 39.0094 11.2906C39.0094 10.4135 39.2081 9.66667 39.6055 9.05C40.0166 8.41963 40.5922 7.94 41.3322 7.61111C42.0859 7.28222 42.9698 7.11778 43.9839 7.11778C44.7513 7.11778 45.4776 7.20685 46.1627 7.385C46.8616 7.56315 47.5879 7.81667 48.3416 8.14556L47.3344 10.5711C46.6629 10.297 46.06 10.0846 45.5255 9.93389C44.9911 9.78315 44.4429 9.70778 43.8811 9.70778C43.4974 9.70778 43.1685 9.76944 42.8944 9.89278C42.6203 10.0161 42.4079 10.1874 42.2572 10.4067C42.1202 10.6259 42.0516 10.8863 42.0516 11.1878C42.0516 11.5304 42.1544 11.825 42.36 12.0717C42.5655 12.3046 42.8739 12.5307 43.285 12.75C43.6961 12.9693 44.21 13.2296 44.8266 13.5311C45.5803 13.8874 46.2176 14.2574 46.7383 14.6411C47.2727 15.0248 47.6839 15.477 47.9716 15.9978C48.2594 16.5185 48.4033 17.1626 48.4033 17.93ZM59.7249 17.93C59.7249 18.7933 59.5125 19.547 59.0877 20.1911C58.6629 20.8352 58.0462 21.3354 57.2377 21.6917C56.4429 22.0343 55.4699 22.2056 54.3188 22.2056C53.8118 22.2056 53.3116 22.1713 52.8183 22.1028C52.3386 22.0343 51.8727 21.9383 51.4205 21.815C50.982 21.678 50.564 21.5135 50.1666 21.3217V18.4233C50.8655 18.7248 51.5849 19.0057 52.3249 19.2661C53.0786 19.5128 53.8255 19.6361 54.5655 19.6361C55.0725 19.6361 55.4768 19.5676 55.7783 19.4306C56.0934 19.2935 56.3195 19.1085 56.4566 18.8756C56.6073 18.6426 56.6827 18.3754 56.6827 18.0739C56.6827 17.7039 56.5525 17.3887 56.2921 17.1283C56.0455 16.868 55.7097 16.6281 55.2849 16.4089C54.8601 16.1759 54.3736 15.9293 53.8255 15.6689C53.4829 15.5044 53.1129 15.3126 52.7155 15.0933C52.3181 14.8604 51.9344 14.5794 51.5644 14.2506C51.2081 13.908 50.9134 13.4969 50.6805 13.0172C50.4475 12.5376 50.331 11.962 50.331 11.2906C50.331 10.4135 50.5297 9.66667 50.9271 9.05C51.3383 8.41963 51.9138 7.94 52.6538 7.61111C53.4075 7.28222 54.2914 7.11778 55.3055 7.11778C56.0729 7.11778 56.7992 7.20685 57.4844 7.385C58.1833 7.56315 58.9095 7.81667 59.6633 8.14556L58.656 10.5711C57.9845 10.297 57.3816 10.0846 56.8471 9.93389C56.3127 9.78315 55.7645 9.70778 55.2027 9.70778C54.819 9.70778 54.4901 9.76944 54.216 9.89278C53.942 10.0161 53.7295 10.1874 53.5788 10.4067C53.4418 10.6259 53.3733 10.8863 53.3733 11.1878C53.3733 11.5304 53.476 11.825 53.6816 12.0717C53.8871 12.3046 54.1955 12.5307 54.6066 12.75C55.0177 12.9693 55.5316 13.2296 56.1483 13.5311C56.902 13.8874 57.5392 14.2574 58.0599 14.6411C58.5944 15.0248 59.0055 15.477 59.2933 15.9978C59.581 16.5185 59.7249 17.1626 59.7249 17.93ZM71.0465 17.93C71.0465 18.7933 70.8341 19.547 70.4093 20.1911C69.9845 20.8352 69.3678 21.3354 68.5593 21.6917C67.7645 22.0343 66.7915 22.2056 65.6404 22.2056C65.1334 22.2056 64.6332 22.1713 64.1399 22.1028C63.6602 22.0343 63.1943 21.9383 62.7421 21.815C62.3036 21.678 61.8856 21.5135 61.4882 21.3217V18.4233C62.1871 18.7248 62.9065 19.0057 63.6465 19.2661C64.4002 19.5128 65.1471 19.6361 65.8871 19.6361C66.3941 19.6361 66.7984 19.5676 67.0999 19.4306C67.4151 19.2935 67.6412 19.1085 67.7782 18.8756C67.9289 18.6426 68.0043 18.3754 68.0043 18.0739C68.0043 17.7039 67.8741 17.3887 67.6138 17.1283C67.3671 16.868 67.0313 16.6281 66.6065 16.4089C66.1817 16.1759 65.6952 15.9293 65.1471 15.6689C64.8045 15.5044 64.4345 15.3126 64.0371 15.0933C63.6397 14.8604 63.256 14.5794 62.886 14.2506C62.5297 13.908 62.2351 13.4969 62.0021 13.0172C61.7691 12.5376 61.6526 11.962 61.6526 11.2906C61.6526 10.4135 61.8513 9.66667 62.2488 9.05C62.6599 8.41963 63.2354 7.94 63.9754 7.61111C64.7291 7.28222 65.613 7.11778 66.6271 7.11778C67.3945 7.11778 68.1208 7.20685 68.806 7.385C69.5049 7.56315 70.2312 7.81667 70.9849 8.14556L69.9776 10.5711C69.3062 10.297 68.7032 10.0846 68.1688 9.93389C67.6343 9.78315 67.0862 9.70778 66.5243 9.70778C66.1406 9.70778 65.8117 9.76944 65.5376 9.89278C65.2636 10.0161 65.0512 10.1874 64.9004 10.4067C64.7634 10.6259 64.6949 10.8863 64.6949 11.1878C64.6949 11.5304 64.7976 11.825 65.0032 12.0717C65.2088 12.3046 65.5171 12.5307 65.9282 12.75C66.3393 12.9693 66.8532 13.2296 67.4699 13.5311C68.2236 13.8874 68.8608 14.2574 69.3815 14.6411C69.916 15.0248 70.3271 15.477 70.6149 15.9978C70.9026 16.5185 71.0465 17.1626 71.0465 17.93ZM76.0781 7.54944C75.9548 8.02907 75.7972 8.54981 75.6054 9.11167C75.4135 9.65981 75.208 10.2148 74.9887 10.7767C74.7694 11.3248 74.5433 11.8524 74.3104 12.3594H72.1109C72.2069 11.9483 72.3028 11.5235 72.3987 11.085C72.4946 10.6465 72.5837 10.208 72.6659 9.76944C72.7619 9.31722 72.8441 8.88556 72.9126 8.47444C72.9948 8.06333 73.0633 7.67963 73.1181 7.32333H75.9343L76.0781 7.54944ZM85.1333 18.67C85.1333 19.4237 84.9552 20.0678 84.5989 20.6022C84.2426 21.123 83.7082 21.5204 82.9956 21.7944C82.283 22.0685 81.3991 22.2056 80.3439 22.2056C79.5628 22.2056 78.8913 22.1507 78.3295 22.0411C77.7676 21.9452 77.2058 21.7807 76.6439 21.5478V19.0194C77.2469 19.2935 77.8978 19.5196 78.5967 19.6978C79.2956 19.8759 79.9122 19.965 80.4467 19.965C81.0496 19.965 81.4745 19.8759 81.7211 19.6978C81.9815 19.5196 82.1117 19.2867 82.1117 18.9989C82.1117 18.807 82.0569 18.6357 81.9472 18.485C81.8513 18.3343 81.6321 18.163 81.2895 17.9711C80.9469 17.7793 80.4124 17.5326 79.6861 17.2311C78.9872 16.9296 78.4117 16.635 77.9595 16.3472C77.5072 16.0457 77.1715 15.6894 76.9522 15.2783C76.733 14.8535 76.6233 14.3259 76.6233 13.6956C76.6233 12.6541 77.0276 11.873 77.8361 11.3522C78.6446 10.8315 79.7204 10.5711 81.0633 10.5711C81.7622 10.5711 82.4269 10.6396 83.0572 10.7767C83.6876 10.9137 84.3385 11.1398 85.01 11.455L84.085 13.6544C83.715 13.49 83.3587 13.3461 83.0161 13.2228C82.6735 13.0994 82.3378 13.0035 82.0089 12.935C81.6937 12.8665 81.3648 12.8322 81.0222 12.8322C80.57 12.8322 80.2274 12.8939 79.9945 13.0172C79.7752 13.1406 79.6656 13.3256 79.6656 13.5722C79.6656 13.7504 79.7204 13.9148 79.83 14.0656C79.9533 14.2026 80.1795 14.3533 80.5083 14.5178C80.8509 14.6822 81.3511 14.9015 82.0089 15.1756C82.653 15.4359 83.208 15.71 83.6739 15.9978C84.1398 16.2719 84.4961 16.6213 84.7428 17.0461C85.0032 17.4572 85.1333 17.9985 85.1333 18.67ZM97.7922 7.32333C99.6833 7.32333 101.061 7.73444 101.924 8.55667C102.801 9.36518 103.239 10.482 103.239 11.9072C103.239 12.5513 103.143 13.168 102.952 13.7572C102.76 14.3328 102.438 14.8535 101.986 15.3194C101.547 15.7717 100.965 16.128 100.238 16.3883C99.512 16.6487 98.6144 16.7789 97.5455 16.7789H96.2094V22H93.1055V7.32333H97.7922ZM97.6278 9.87222H96.2094V14.23H97.2372C97.8265 14.23 98.3335 14.1546 98.7583 14.0039C99.1831 13.8531 99.512 13.6133 99.745 13.2844C99.9779 12.9556 100.094 12.5307 100.094 12.01C100.094 11.2837 99.8957 10.7493 99.4983 10.4067C99.1009 10.0504 98.4774 9.87222 97.6278 9.87222ZM115.962 16.3678C115.962 17.2996 115.832 18.1287 115.571 18.855C115.325 19.5813 114.961 20.198 114.482 20.705C114.016 21.1983 113.447 21.5752 112.776 21.8356C112.104 22.0822 111.344 22.2056 110.494 22.2056C109.713 22.2056 108.987 22.0822 108.315 21.8356C107.657 21.5752 107.089 21.1983 106.609 20.705C106.129 20.198 105.753 19.5813 105.479 18.855C105.218 18.1287 105.088 17.2996 105.088 16.3678C105.088 15.1207 105.307 14.0724 105.746 13.2228C106.184 12.3594 106.815 11.7017 107.637 11.2494C108.459 10.7972 109.432 10.5711 110.556 10.5711C111.611 10.5711 112.543 10.7972 113.351 11.2494C114.16 11.7017 114.797 12.3594 115.263 13.2228C115.729 14.0724 115.962 15.1207 115.962 16.3678ZM108.212 16.3678C108.212 17.1078 108.288 17.7313 108.439 18.2383C108.603 18.7317 108.856 19.1085 109.199 19.3689C109.542 19.6156 109.987 19.7389 110.535 19.7389C111.083 19.7389 111.522 19.6156 111.851 19.3689C112.193 19.1085 112.44 18.7317 112.591 18.2383C112.755 17.7313 112.837 17.1078 112.837 16.3678C112.837 15.6278 112.755 15.0111 112.591 14.5178C112.44 14.0244 112.193 13.6544 111.851 13.4078C111.508 13.1611 111.063 13.0378 110.515 13.0378C109.706 13.0378 109.117 13.3187 108.747 13.8806C108.391 14.4287 108.212 15.2578 108.212 16.3678ZM124.763 10.5711C124.913 10.5711 125.091 10.578 125.297 10.5917C125.503 10.6054 125.667 10.6259 125.79 10.6533L125.564 13.5311C125.468 13.5037 125.324 13.4831 125.133 13.4694C124.954 13.442 124.797 13.4283 124.66 13.4283C124.262 13.4283 123.879 13.4831 123.509 13.5928C123.139 13.6887 122.803 13.8463 122.501 14.0656C122.214 14.2848 121.981 14.5794 121.803 14.9494C121.638 15.3057 121.556 15.7511 121.556 16.2856V22H118.493V10.7767H120.816L121.268 12.6678H121.412C121.631 12.2841 121.905 11.9346 122.234 11.6194C122.563 11.3043 122.94 11.0507 123.365 10.8589C123.803 10.667 124.269 10.5711 124.763 10.5711ZM132.555 19.7594C132.898 19.7594 133.227 19.7252 133.542 19.6567C133.857 19.5881 134.172 19.5059 134.487 19.41V21.6917C134.159 21.8287 133.747 21.9452 133.254 22.0411C132.774 22.1507 132.247 22.2056 131.671 22.2056C131 22.2056 130.397 22.0959 129.862 21.8767C129.342 21.6574 128.924 21.2806 128.609 20.7461C128.307 20.198 128.156 19.4443 128.156 18.485V13.0789H126.697V11.7839L128.382 10.7561L129.266 8.39222H131.219V10.7767H134.364V13.0789H131.219V18.485C131.219 18.9098 131.342 19.2319 131.589 19.4511C131.836 19.6567 132.158 19.7594 132.555 19.7594ZM140.05 22H136.987V7.32333H145.394V9.87222H140.05V13.6544H145.024V16.2033H140.05V22ZM158.217 16.3678C158.217 17.2996 158.087 18.1287 157.827 18.855C157.58 19.5813 157.217 20.198 156.737 20.705C156.271 21.1983 155.703 21.5752 155.031 21.8356C154.36 22.0822 153.599 22.2056 152.749 22.2056C151.968 22.2056 151.242 22.0822 150.571 21.8356C149.913 21.5752 149.344 21.1983 148.864 20.705C148.385 20.198 148.008 19.5813 147.734 18.855C147.473 18.1287 147.343 17.2996 147.343 16.3678C147.343 15.1207 147.563 14.0724 148.001 13.2228C148.44 12.3594 149.07 11.7017 149.892 11.2494C150.714 10.7972 151.687 10.5711 152.811 10.5711C153.866 10.5711 154.798 10.7972 155.607 11.2494C156.415 11.7017 157.052 12.3594 157.518 13.2228C157.984 14.0724 158.217 15.1207 158.217 16.3678ZM150.468 16.3678C150.468 17.1078 150.543 17.7313 150.694 18.2383C150.858 18.7317 151.112 19.1085 151.454 19.3689C151.797 19.6156 152.242 19.7389 152.791 19.7389C153.339 19.7389 153.777 19.6156 154.106 19.3689C154.449 19.1085 154.695 18.7317 154.846 18.2383C155.011 17.7313 155.093 17.1078 155.093 16.3678C155.093 15.6278 155.011 15.0111 154.846 14.5178C154.695 14.0244 154.449 13.6544 154.106 13.4078C153.763 13.1611 153.318 13.0378 152.77 13.0378C151.961 13.0378 151.372 13.3187 151.002 13.8806C150.646 14.4287 150.468 15.2578 150.468 16.3678ZM163.811 22H160.748V6.37778H163.811V22ZM170.074 10.7767V22H167.011V10.7767H170.074ZM168.553 6.37778C169.005 6.37778 169.396 6.48741 169.725 6.70667C170.054 6.91222 170.218 7.30278 170.218 7.87833C170.218 8.44018 170.054 8.83074 169.725 9.05C169.396 9.26926 169.005 9.37889 168.553 9.37889C168.087 9.37889 167.69 9.26926 167.361 9.05C167.046 8.83074 166.888 8.44018 166.888 7.87833C166.888 7.30278 167.046 6.91222 167.361 6.70667C167.69 6.48741 168.087 6.37778 168.553 6.37778ZM183.47 16.3678C183.47 17.2996 183.34 18.1287 183.079 18.855C182.833 19.5813 182.47 20.198 181.99 20.705C181.524 21.1983 180.955 21.5752 180.284 21.8356C179.612 22.0822 178.852 22.2056 178.002 22.2056C177.221 22.2056 176.495 22.0822 175.823 21.8356C175.166 21.5752 174.597 21.1983 174.117 20.705C173.638 20.198 173.261 19.5813 172.987 18.855C172.726 18.1287 172.596 17.2996 172.596 16.3678C172.596 15.1207 172.815 14.0724 173.254 13.2228C173.692 12.3594 174.323 11.7017 175.145 11.2494C175.967 10.7972 176.94 10.5711 178.064 10.5711C179.119 10.5711 180.051 10.7972 180.859 11.2494C181.668 11.7017 182.305 12.3594 182.771 13.2228C183.237 14.0724 183.47 15.1207 183.47 16.3678ZM175.721 16.3678C175.721 17.1078 175.796 17.7313 175.947 18.2383C176.111 18.7317 176.365 19.1085 176.707 19.3689C177.05 19.6156 177.495 19.7389 178.043 19.7389C178.591 19.7389 179.03 19.6156 179.359 19.3689C179.701 19.1085 179.948 18.7317 180.099 18.2383C180.263 17.7313 180.346 17.1078 180.346 16.3678C180.346 15.6278 180.263 15.0111 180.099 14.5178C179.948 14.0244 179.701 13.6544 179.359 13.4078C179.016 13.1611 178.571 13.0378 178.023 13.0378C177.214 13.0378 176.625 13.3187 176.255 13.8806C175.899 14.4287 175.721 15.2578 175.721 16.3678Z" fill="#0D0C0C"/>
<path d="M59.6486 35L58.0445 29.3939H59.3393L60.2672 33.2892H60.3137L61.3375 29.3939H62.4461L63.4672 33.2974H63.5164L64.4444 29.3939H65.7391L64.1351 35H62.9799L61.9123 31.3347H61.8685L60.8037 35H59.6486ZM71.209 32.197C71.209 32.8083 71.0931 33.3284 70.8614 33.7573C70.6314 34.1861 70.3176 34.5137 69.9197 34.74C69.5237 34.9644 69.0785 35.0766 68.5839 35.0766C68.0857 35.0766 67.6386 34.9635 67.2426 34.7372C66.8466 34.5109 66.5337 34.1834 66.3037 33.7545C66.0738 33.3257 65.9588 32.8065 65.9588 32.197C65.9588 31.5856 66.0738 31.0655 66.3037 30.6367C66.5337 30.2078 66.8466 29.8812 67.2426 29.6567C67.6386 29.4304 68.0857 29.3173 68.5839 29.3173C69.0785 29.3173 69.5237 29.4304 69.9197 29.6567C70.3176 29.8812 70.6314 30.2078 70.8614 30.6367C71.0931 31.0655 71.209 31.5856 71.209 32.197ZM70.0073 32.197C70.0073 31.801 69.948 31.467 69.8294 31.1951C69.7126 30.9232 69.5475 30.717 69.3339 30.5765C69.1204 30.436 68.8704 30.3657 68.5839 30.3657C68.2974 30.3657 68.0474 30.436 67.8339 30.5765C67.6204 30.717 67.4543 30.9232 67.3357 31.1951C67.2189 31.467 67.1605 31.801 67.1605 32.197C67.1605 32.593 67.2189 32.9269 67.3357 33.1988C67.4543 33.4707 67.6204 33.677 67.8339 33.8175C68.0474 33.958 68.2974 34.0282 68.5839 34.0282C68.8704 34.0282 69.1204 33.958 69.3339 33.8175C69.5475 33.677 69.7126 33.4707 69.8294 33.1988C69.948 32.9269 70.0073 32.593 70.0073 32.197ZM72.087 35V29.3939H74.2988C74.7222 29.3939 75.0835 29.4697 75.3828 29.6211C75.6839 29.7708 75.9129 29.9834 76.0698 30.2589C76.2286 30.5327 76.308 30.8548 76.308 31.2252C76.308 31.5975 76.2277 31.9178 76.0671 32.186C75.9065 32.4525 75.6738 32.6568 75.3691 32.7992C75.0661 32.9415 74.6993 33.0127 74.2687 33.0127H72.7878V32.0601H74.0771C74.3033 32.0601 74.4913 32.0291 74.6409 31.967C74.7906 31.905 74.9019 31.8119 74.9749 31.6878C75.0497 31.5637 75.0871 31.4095 75.0871 31.2252C75.0871 31.0391 75.0497 30.8821 74.9749 30.7544C74.9019 30.6267 74.7897 30.5299 74.6382 30.4642C74.4886 30.3967 74.2997 30.363 74.0716 30.363H73.2723V35H72.087ZM75.1145 32.4488L76.5078 35H75.1994L73.8362 32.4488H75.1145ZM77.1456 35V29.3939H78.3309V31.8658H78.4048L80.4222 29.3939H81.8429L79.7625 31.9041L81.8675 35H80.4496L78.9139 32.6952L78.3309 33.4069V35H77.1456ZM85.9413 35.0821C85.5545 35.0821 85.2205 35.0128 84.9395 34.8741C84.6585 34.7354 84.4422 34.5474 84.2907 34.3102C84.1411 34.0711 84.0663 33.8047 84.0663 33.5109C84.0663 33.2919 84.1101 33.0976 84.1977 32.9278C84.2853 32.7581 84.4075 32.6021 84.5645 32.4598C84.7214 32.3156 84.9039 32.1723 85.1119 32.03L86.1987 31.3155C86.3392 31.2261 86.4423 31.1321 86.508 31.0336C86.5737 30.9332 86.6065 30.8247 86.6065 30.7079C86.6065 30.5965 86.5618 30.4934 86.4724 30.3985C86.383 30.3036 86.2561 30.2571 86.0919 30.2589C85.9824 30.2589 85.8875 30.2836 85.8072 30.3328C85.7269 30.3803 85.664 30.4433 85.6183 30.5217C85.5745 30.5984 85.5526 30.6841 85.5526 30.779C85.5526 30.8958 85.5855 31.0144 85.6512 31.1349C85.7169 31.2553 85.8045 31.3831 85.914 31.5181C86.0235 31.6513 86.143 31.7955 86.2726 31.9506L88.9305 35H87.7151L85.4979 32.5309C85.3519 32.3649 85.2059 32.1915 85.0599 32.0108C84.9158 31.8283 84.7953 31.6349 84.6986 31.4305C84.6019 31.2243 84.5535 31.0008 84.5535 30.7599C84.5535 30.488 84.6165 30.2434 84.7424 30.0263C84.8701 29.8091 85.049 29.6376 85.2789 29.5116C85.5088 29.3839 85.7771 29.32 86.0837 29.32C86.383 29.32 86.6412 29.3812 86.8584 29.5034C87.0773 29.6239 87.2452 29.7845 87.362 29.9852C87.4806 30.1841 87.54 30.4031 87.54 30.6422C87.54 30.9068 87.4743 31.1467 87.3429 31.3621C87.2133 31.5756 87.0308 31.7672 86.7954 31.9369L85.6512 32.7609C85.4961 32.874 85.3811 32.9899 85.3063 33.1085C85.2333 33.2253 85.1968 33.3375 85.1968 33.4452C85.1968 33.5784 85.2296 33.6979 85.2953 33.8038C85.361 33.9096 85.4541 33.9936 85.5745 34.0556C85.695 34.1158 85.8364 34.146 85.9988 34.146C86.1959 34.146 86.3903 34.1012 86.5819 34.0118C86.7753 33.9206 86.9505 33.7919 87.1075 33.6259C87.2662 33.458 87.393 33.2591 87.4879 33.0291C87.5828 32.7992 87.6303 32.5446 87.6303 32.2654H88.5966C88.5966 32.6085 88.5592 32.9178 88.4843 33.1934C88.4095 33.4671 88.3055 33.7062 88.1723 33.9105C88.0391 34.1131 87.8867 34.2792 87.7151 34.4087C87.6604 34.4434 87.6075 34.4763 87.5564 34.5073C87.5053 34.5383 87.4524 34.5712 87.3976 34.6058C87.1896 34.7737 86.9569 34.8951 86.6996 34.9699C86.4441 35.0447 86.1914 35.0821 85.9413 35.0821ZM96.1687 31.3566H94.9698C94.9479 31.2015 94.9032 31.0637 94.8356 30.9433C94.7681 30.821 94.6814 30.717 94.5756 30.6312C94.4697 30.5454 94.3475 30.4797 94.2088 30.4341C94.0719 30.3885 93.9232 30.3657 93.7626 30.3657C93.4724 30.3657 93.2197 30.4378 93.0044 30.5819C92.789 30.7243 92.622 30.9323 92.5034 31.2061C92.3848 31.478 92.3255 31.8083 92.3255 32.197C92.3255 32.5966 92.3848 32.9324 92.5034 33.2043C92.6239 33.4762 92.7918 33.6815 93.0071 33.8202C93.2224 33.9589 93.4715 34.0282 93.7544 34.0282C93.9132 34.0282 94.0601 34.0073 94.1951 33.9653C94.332 33.9233 94.4533 33.8622 94.5592 33.7819C94.665 33.6998 94.7526 33.6003 94.8219 33.4835C94.8931 33.3667 94.9424 33.2335 94.9698 33.0839L96.1687 33.0893C96.1377 33.3467 96.0601 33.5948 95.936 33.8339C95.8138 34.0711 95.6486 34.2837 95.4406 34.4717C95.2344 34.6578 94.988 34.8056 94.7015 34.9151C94.4168 35.0228 94.0947 35.0766 93.7352 35.0766C93.2352 35.0766 92.7881 34.9635 92.3939 34.7372C92.0016 34.5109 91.6913 34.1834 91.4632 33.7545C91.237 33.3257 91.1238 32.8065 91.1238 32.197C91.1238 31.5856 91.2388 31.0655 91.4687 30.6367C91.6986 30.2078 92.0107 29.8812 92.4049 29.6567C92.7991 29.4304 93.2425 29.3173 93.7352 29.3173C94.0601 29.3173 94.3612 29.3629 94.6385 29.4542C94.9178 29.5454 95.165 29.6786 95.3804 29.8538C95.5957 30.0272 95.7709 30.2398 95.9059 30.4916C96.0428 30.7434 96.1304 31.0318 96.1687 31.3566ZM97.0187 35V29.3939H99.2304C99.6538 29.3939 100.015 29.4697 100.314 29.6211C100.616 29.7708 100.845 29.9834 101.001 30.2589C101.16 30.5327 101.24 30.8548 101.24 31.2252C101.24 31.5975 101.159 31.9178 100.999 32.186C100.838 32.4525 100.605 32.6568 100.301 32.7992C99.9978 32.9415 99.631 33.0127 99.2003 33.0127H97.7194V32.0601H99.0087C99.235 32.0601 99.4229 32.0291 99.5726 31.967C99.7222 31.905 99.8335 31.8119 99.9065 31.6878C99.9814 31.5637 100.019 31.4095 100.019 31.2252C100.019 31.0391 99.9814 30.8821 99.9065 30.7544C99.8335 30.6267 99.7213 30.5299 99.5699 30.4642C99.4202 30.3967 99.2313 30.363 99.0032 30.363H98.2039V35H97.0187ZM100.046 32.4488L101.439 35H100.131L98.7678 32.4488H100.046ZM102.077 35V29.3939H105.855V30.3712H103.263V31.707H105.66V32.6842H103.263V34.0228H105.866V35H102.077ZM107.763 35H106.493L108.429 29.3939H109.956L111.889 35H110.618L109.214 30.675H109.17L107.763 35ZM107.684 32.7964H110.684V33.7217H107.684V32.7964ZM111.665 30.3712V29.3939H116.269V30.3712H114.553V35H113.381V30.3712H111.665ZM117.027 35V29.3939H120.805V30.3712H118.212V31.707H120.61V32.6842H118.212V34.0228H120.816V35H117.027ZM125.228 35.0821C124.841 35.0821 124.507 35.0128 124.226 34.8741C123.945 34.7354 123.729 34.5474 123.578 34.3102C123.428 34.0711 123.353 33.8047 123.353 33.5109C123.353 33.2919 123.397 33.0976 123.485 32.9278C123.572 32.7581 123.694 32.6021 123.851 32.4598C124.008 32.3156 124.191 32.1723 124.399 32.03L125.486 31.3155C125.626 31.2261 125.729 31.1321 125.795 31.0336C125.861 30.9332 125.893 30.8247 125.893 30.7079C125.893 30.5965 125.849 30.4934 125.759 30.3985C125.67 30.3036 125.543 30.2571 125.379 30.2589C125.269 30.2589 125.174 30.2836 125.094 30.3328C125.014 30.3803 124.951 30.4433 124.905 30.5217C124.861 30.5984 124.84 30.6841 124.84 30.779C124.84 30.8958 124.872 31.0144 124.938 31.1349C125.004 31.2553 125.091 31.3831 125.201 31.5181C125.31 31.6513 125.43 31.7955 125.559 31.9506L128.217 35H127.002L124.785 32.5309C124.639 32.3649 124.493 32.1915 124.347 32.0108C124.203 31.8283 124.082 31.6349 123.986 31.4305C123.889 31.2243 123.84 31.0008 123.84 30.7599C123.84 30.488 123.903 30.2434 124.029 30.0263C124.157 29.8091 124.336 29.6376 124.566 29.5116C124.796 29.3839 125.064 29.32 125.371 29.32C125.67 29.32 125.928 29.3812 126.145 29.5034C126.364 29.6239 126.532 29.7845 126.649 29.9852C126.768 30.1841 126.827 30.4031 126.827 30.6422C126.827 30.9068 126.761 31.1467 126.63 31.3621C126.5 31.5756 126.318 31.7672 126.082 31.9369L124.938 32.7609C124.783 32.874 124.668 32.9899 124.593 33.1085C124.52 33.2253 124.484 33.3375 124.484 33.4452C124.484 33.5784 124.517 33.6979 124.582 33.8038C124.648 33.9096 124.741 33.9936 124.861 34.0556C124.982 34.1158 125.123 34.146 125.286 34.146C125.483 34.146 125.677 34.1012 125.869 34.0118C126.062 33.9206 126.237 33.7919 126.394 33.6259C126.553 33.458 126.68 33.2591 126.775 33.0291C126.87 32.7992 126.917 32.5446 126.917 32.2654H127.883C127.883 32.6085 127.846 32.9178 127.771 33.1934C127.696 33.4671 127.592 33.7062 127.459 33.9105C127.326 34.1131 127.174 34.2792 127.002 34.4087C126.947 34.4434 126.894 34.4763 126.843 34.5073C126.792 34.5383 126.739 34.5712 126.685 34.6058C126.476 34.7737 126.244 34.8951 125.986 34.9699C125.731 35.0447 125.478 35.0821 125.228 35.0821ZM130.509 35V29.3939H132.721C133.146 29.3939 133.508 29.4751 133.808 29.6376C134.107 29.7982 134.335 30.0217 134.492 30.3082C134.651 30.5929 134.73 30.9214 134.73 31.2936C134.73 31.6659 134.65 31.9944 134.489 32.2791C134.329 32.5638 134.096 32.7855 133.791 32.9443C133.488 33.103 133.122 33.1824 132.691 33.1824H131.281V32.2326H132.499C132.727 32.2326 132.915 32.1933 133.063 32.1148C133.213 32.0346 133.324 31.9241 133.397 31.7836C133.472 31.6413 133.509 31.478 133.509 31.2936C133.509 31.1075 133.472 30.9451 133.397 30.8064C133.324 30.6659 133.213 30.5573 133.063 30.4807C132.914 30.4022 132.724 30.363 132.494 30.363H131.695V35H130.509ZM135.819 35H134.549L136.484 29.3939H138.012L139.944 35H138.674L137.27 30.675H137.226L135.819 35ZM135.74 32.7964H138.74V33.7217H135.74V32.7964ZM143.532 31.0062C143.51 30.7854 143.416 30.6139 143.25 30.4916C143.084 30.3693 142.859 30.3082 142.574 30.3082C142.381 30.3082 142.217 30.3356 142.084 30.3903C141.951 30.4433 141.849 30.5172 141.777 30.6121C141.708 30.7069 141.673 30.8146 141.673 30.9351C141.67 31.0354 141.691 31.123 141.736 31.1978C141.784 31.2727 141.849 31.3374 141.931 31.3922C142.013 31.4451 142.108 31.4916 142.215 31.5318C142.323 31.5701 142.438 31.603 142.56 31.6303L143.064 31.7508C143.309 31.8055 143.533 31.8785 143.737 31.9698C143.942 32.061 144.119 32.1732 144.268 32.3065C144.418 32.4397 144.534 32.5966 144.616 32.7773C144.7 32.9579 144.743 33.1651 144.745 33.3987C144.743 33.7417 144.655 34.0392 144.482 34.291C144.31 34.541 144.062 34.7354 143.737 34.8741C143.414 35.0109 143.025 35.0794 142.569 35.0794C142.116 35.0794 141.722 35.01 141.386 34.8713C141.052 34.7327 140.791 34.5274 140.603 34.2554C140.417 33.9817 140.319 33.6432 140.31 33.2399H141.457C141.47 33.4279 141.524 33.5848 141.619 33.7107C141.715 33.8348 141.844 33.9288 142.005 33.9927C142.167 34.0547 142.351 34.0857 142.555 34.0857C142.756 34.0857 142.93 34.0565 143.078 33.9981C143.227 33.9397 143.343 33.8585 143.425 33.7545C143.507 33.6505 143.549 33.531 143.549 33.3959C143.549 33.27 143.511 33.1642 143.436 33.0784C143.363 32.9926 143.256 32.9196 143.113 32.8594C142.973 32.7992 142.8 32.7444 142.596 32.6952L141.986 32.5419C141.513 32.4269 141.14 32.2472 140.866 32.0026C140.592 31.7581 140.456 31.4287 140.458 31.0144C140.456 30.675 140.547 30.3785 140.729 30.1248C140.913 29.8711 141.166 29.6731 141.487 29.5308C141.809 29.3885 142.173 29.3173 142.582 29.3173C142.998 29.3173 143.361 29.3885 143.672 29.5308C143.984 29.6731 144.226 29.8711 144.4 30.1248C144.573 30.3785 144.663 30.6723 144.668 31.0062H143.532ZM148.583 31.0062C148.561 30.7854 148.467 30.6139 148.301 30.4916C148.135 30.3693 147.91 30.3082 147.625 30.3082C147.432 30.3082 147.268 30.3356 147.135 30.3903C147.002 30.4433 146.9 30.5172 146.829 30.6121C146.759 30.7069 146.725 30.8146 146.725 30.9351C146.721 31.0354 146.742 31.123 146.787 31.1978C146.835 31.2727 146.9 31.3374 146.982 31.3922C147.064 31.4451 147.159 31.4916 147.267 31.5318C147.374 31.5701 147.489 31.603 147.611 31.6303L148.115 31.7508C148.36 31.8055 148.584 31.8785 148.788 31.9698C148.993 32.061 149.17 32.1732 149.32 32.3065C149.469 32.4397 149.585 32.5966 149.667 32.7773C149.751 32.9579 149.794 33.1651 149.796 33.3987C149.794 33.7417 149.706 34.0392 149.533 34.291C149.362 34.541 149.113 34.7354 148.788 34.8741C148.465 35.0109 148.076 35.0794 147.62 35.0794C147.167 35.0794 146.773 35.01 146.437 34.8713C146.103 34.7327 145.842 34.5274 145.654 34.2554C145.468 33.9817 145.37 33.6432 145.361 33.2399H146.508C146.521 33.4279 146.575 33.5848 146.67 33.7107C146.767 33.8348 146.895 33.9288 147.056 33.9927C147.218 34.0547 147.402 34.0857 147.606 34.0857C147.807 34.0857 147.981 34.0565 148.129 33.9981C148.278 33.9397 148.394 33.8585 148.476 33.7545C148.559 33.6505 148.6 33.531 148.6 33.3959C148.6 33.27 148.562 33.1642 148.487 33.0784C148.414 32.9926 148.307 32.9196 148.164 32.8594C148.024 32.7992 147.851 32.7444 147.647 32.6952L147.037 32.5419C146.564 32.4269 146.191 32.2472 145.917 32.0026C145.643 31.7581 145.507 31.4287 145.509 31.0144C145.507 30.675 145.598 30.3785 145.78 30.1248C145.964 29.8711 146.217 29.6731 146.538 29.5308C146.86 29.3885 147.225 29.3173 147.633 29.3173C148.049 29.3173 148.413 29.3885 148.723 29.5308C149.035 29.6731 149.278 29.8711 149.451 30.1248C149.624 30.3785 149.714 30.6723 149.719 31.0062H148.583ZM151.778 29.3939V35H150.593V29.3939H151.778ZM157.905 32.197C157.905 32.8083 157.789 33.3284 157.558 33.7573C157.328 34.1861 157.014 34.5137 156.616 34.74C156.22 34.9644 155.775 35.0766 155.28 35.0766C154.782 35.0766 154.335 34.9635 153.939 34.7372C153.543 34.5109 153.23 34.1834 153 33.7545C152.77 33.3257 152.655 32.8065 152.655 32.197C152.655 31.5856 152.77 31.0655 153 30.6367C153.23 30.2078 153.543 29.8812 153.939 29.6567C154.335 29.4304 154.782 29.3173 155.28 29.3173C155.775 29.3173 156.22 29.4304 156.616 29.6567C157.014 29.8812 157.328 30.2078 157.558 30.6367C157.789 31.0655 157.905 31.5856 157.905 32.197ZM156.703 32.197C156.703 31.801 156.644 31.467 156.526 31.1951C156.409 30.9232 156.244 30.717 156.03 30.5765C155.817 30.436 155.567 30.3657 155.28 30.3657C154.994 30.3657 154.744 30.436 154.53 30.5765C154.317 30.717 154.15 30.9232 154.032 31.1951C153.915 31.467 153.857 31.801 153.857 32.197C153.857 32.593 153.915 32.9269 154.032 33.1988C154.15 33.4707 154.317 33.677 154.53 33.8175C154.744 33.958 154.994 34.0282 155.28 34.0282C155.567 34.0282 155.817 33.958 156.03 33.8175C156.244 33.677 156.409 33.4707 156.526 33.1988C156.644 32.9269 156.703 32.593 156.703 32.197ZM163.472 29.3939V35H162.448L160.01 31.4716H159.968V35H158.783V29.3939H159.823L162.243 32.9196H162.292V29.3939H163.472Z" fill="#0D0C0C"/>
</svg>
