<svg width="59" height="288" viewBox="0 0 59 288" fill="none" xmlns="http://www.w3.org/2000/svg">
<path d="M3.94337 263.5C3.05021 261.953 3.05021 260.047 3.94337 258.5L14.5566 240.117C15.4498 238.57 17.1004 237.617 18.8867 237.617L40.1132 237.617C41.8996 237.617 43.5502 238.57 44.4434 240.117L55.0566 258.5C55.9498 260.047 55.9498 261.953 55.0566 263.5L44.4434 281.883C43.5502 283.43 41.8996 284.383 40.1132 284.383L18.8868 284.383C17.1004 284.383 15.4498 283.43 14.5566 281.883L3.94337 263.5Z" fill="#0D0C0C"/>
<path d="M37.4375 273.031L29.4688 281L21.5 273.031L23.3594 271.172L29.4688 277.281L35.5782 271.172L37.4375 273.031Z" fill="#DEDEDE"/>
<path d="M21.5 257.75L37.6903 262.108L37.6903 264.531L21.5 260.173L21.5 257.75Z" fill="#DEDEDE"/>
<path d="M37.4375 249.25L29.4688 241.281L21.5 249.25L23.3594 251.109L29.4688 245L35.5782 251.109L37.4375 249.25Z" fill="#DEDEDE"/>
<path d="M27.664 212.648C29.008 212.648 30.1813 212.979 31.184 213.64C32.1867 214.301 32.9653 215.261 33.52 216.52C34.0533 217.757 34.32 219.272 34.32 221.064C34.32 221.853 34.2667 222.632 34.16 223.4C34.0533 224.147 33.904 224.872 33.712 225.576C33.4987 226.259 33.2427 226.909 32.944 227.528L28.432 227.528C28.9013 226.44 29.3387 225.32 29.744 224.168C30.128 222.995 30.32 221.832 30.32 220.68C30.32 219.891 30.2133 219.261 30 218.792C29.7867 218.301 29.4987 217.949 29.136 217.736C28.7733 217.501 28.3573 217.384 27.888 217.384C27.312 217.384 26.8213 217.587 26.416 217.992C26.0107 218.376 25.6373 218.899 25.296 219.56C24.9333 220.221 24.5493 220.979 24.144 221.832C23.888 222.365 23.5893 222.941 23.248 223.56C22.8853 224.179 22.448 224.776 21.936 225.352C21.4027 225.907 20.7627 226.365 20.016 226.728C19.2693 227.091 18.3733 227.272 17.328 227.272C15.9627 227.272 14.8 226.963 13.84 226.344C12.8587 225.704 12.112 224.808 11.6 223.656C11.088 222.483 10.832 221.107 10.832 219.528C10.832 218.333 10.9707 217.203 11.248 216.136C11.5253 215.048 11.92 213.917 12.432 212.744L16.208 214.312C15.7813 215.357 15.4507 216.296 15.216 217.128C14.9813 217.96 14.864 218.813 14.864 219.688C14.864 220.285 14.96 220.797 15.152 221.224C15.344 221.651 15.6107 221.981 15.952 222.216C16.2933 222.429 16.6987 222.536 17.168 222.536C17.7013 222.536 18.16 222.376 18.544 222.056C18.9067 221.736 19.2587 221.256 19.6 220.616C19.9413 219.976 20.3467 219.176 20.816 218.216C21.3707 217.043 21.9467 216.051 22.544 215.24C23.1413 214.408 23.8453 213.768 24.656 213.32C25.4667 212.872 26.4693 212.648 27.664 212.648ZM27.664 195.023C29.008 195.023 30.1813 195.354 31.184 196.015C32.1867 196.676 32.9653 197.636 33.52 198.895C34.0533 200.132 34.32 201.647 34.32 203.439C34.32 204.228 34.2667 205.007 34.16 205.775C34.0533 206.522 33.904 207.247 33.712 207.951C33.4987 208.634 33.2427 209.284 32.944 209.903L28.432 209.903C28.9013 208.815 29.3387 207.695 29.744 206.543C30.128 205.37 30.32 204.207 30.32 203.055C30.32 202.266 30.2133 201.636 30 201.167C29.7867 200.676 29.4987 200.324 29.136 200.111C28.7733 199.876 28.3573 199.759 27.888 199.759C27.312 199.759 26.8213 199.962 26.416 200.367C26.0107 200.751 25.6373 201.274 25.296 201.935C24.9333 202.596 24.5493 203.354 24.144 204.207C23.888 204.74 23.5893 205.316 23.248 205.935C22.8853 206.554 22.448 207.151 21.936 207.727C21.4027 208.282 20.7627 208.74 20.016 209.103C19.2693 209.466 18.3733 209.647 17.328 209.647C15.9627 209.647 14.8 209.338 13.84 208.719C12.8587 208.079 12.112 207.183 11.6 206.031C11.088 204.858 10.832 203.482 10.832 201.903C10.832 200.708 10.9707 199.578 11.248 198.511C11.5253 197.423 11.92 196.292 12.432 195.119L16.208 196.687C15.7813 197.732 15.4507 198.671 15.216 199.503C14.9813 200.335 14.864 201.188 14.864 202.063C14.864 202.66 14.96 203.172 15.152 203.599C15.344 204.026 15.6107 204.356 15.952 204.591C16.2933 204.804 16.6987 204.911 17.168 204.911C17.7013 204.911 18.16 204.751 18.544 204.431C18.9067 204.111 19.2587 203.631 19.6 202.991C19.9413 202.351 20.3467 201.551 20.816 200.591C21.3707 199.418 21.9467 198.426 22.544 197.615C23.1413 196.783 23.8453 196.143 24.656 195.695C25.4667 195.247 26.4693 195.023 27.664 195.023ZM27.664 177.398C29.008 177.398 30.1813 177.729 31.184 178.39C32.1867 179.051 32.9653 180.011 33.52 181.27C34.0533 182.507 34.32 184.022 34.32 185.814C34.32 186.603 34.2667 187.382 34.16 188.15C34.0533 188.897 33.904 189.622 33.712 190.326C33.4987 191.009 33.2427 191.659 32.944 192.278L28.432 192.278C28.9013 191.19 29.3387 190.07 29.744 188.918C30.128 187.745 30.32 186.582 30.32 185.43C30.32 184.641 30.2133 184.011 30 183.542C29.7867 183.051 29.4987 182.699 29.136 182.486C28.7733 182.251 28.3573 182.134 27.888 182.134C27.312 182.134 26.8213 182.337 26.416 182.742C26.0107 183.126 25.6373 183.649 25.296 184.31C24.9333 184.971 24.5493 185.729 24.144 186.582C23.888 187.115 23.5893 187.691 23.248 188.31C22.8853 188.929 22.448 189.526 21.936 190.102C21.4027 190.657 20.7627 191.115 20.016 191.478C19.2693 191.841 18.3733 192.022 17.328 192.022C15.9627 192.022 14.8 191.713 13.84 191.094C12.8587 190.454 12.112 189.558 11.6 188.406C11.088 187.233 10.832 185.857 10.832 184.278C10.832 183.083 10.9707 181.953 11.248 180.886C11.5253 179.798 11.92 178.667 12.432 177.494L16.208 179.062C15.7813 180.107 15.4507 181.046 15.216 181.878C14.9813 182.71 14.864 183.563 14.864 184.438C14.864 185.035 14.96 185.547 15.152 185.974C15.344 186.401 15.6107 186.731 15.952 186.966C16.2933 187.179 16.6987 187.286 17.168 187.286C17.7013 187.286 18.16 187.126 18.544 186.806C18.9067 186.486 19.2587 186.006 19.6 185.366C19.9413 184.726 20.3467 183.926 20.816 182.966C21.3707 181.793 21.9467 180.801 22.544 179.99C23.1413 179.158 23.8453 178.518 24.656 178.07C25.4667 177.622 26.4693 177.398 27.664 177.398ZM11.504 169.565C12.2507 169.757 13.0613 170.002 13.936 170.301C14.7893 170.6 15.6533 170.92 16.528 171.261C17.3813 171.602 18.2027 171.954 18.992 172.317L18.992 175.741C18.352 175.592 17.6907 175.442 17.008 175.293C16.3253 175.144 15.6427 175.005 14.96 174.877C14.256 174.728 13.584 174.6 12.944 174.493C12.304 174.365 11.7067 174.258 11.152 174.173L11.152 169.789L11.504 169.565ZM28.816 155.468C29.9893 155.468 30.992 155.746 31.824 156.3C32.6347 156.855 33.2533 157.687 33.68 158.796C34.1067 159.906 34.32 161.282 34.32 162.924C34.32 164.14 34.2347 165.186 34.064 166.06C33.9147 166.935 33.6587 167.81 33.296 168.684L29.36 168.684C29.7867 167.746 30.1387 166.732 30.416 165.644C30.6933 164.556 30.832 163.596 30.832 162.764C30.832 161.826 30.6933 161.164 30.416 160.78C30.1387 160.375 29.776 160.172 29.328 160.172C29.0293 160.172 28.7627 160.258 28.528 160.428C28.2933 160.578 28.0267 160.919 27.728 161.452C27.4293 161.986 27.0453 162.818 26.576 163.948C26.1067 165.036 25.648 165.932 25.2 166.636C24.7307 167.34 24.176 167.863 23.536 168.204C22.8747 168.546 22.0533 168.716 21.072 168.716C19.4507 168.716 18.2347 168.087 17.424 166.828C16.6133 165.57 16.208 163.895 16.208 161.804C16.208 160.716 16.3147 159.682 16.528 158.7C16.7413 157.719 17.0933 156.706 17.584 155.66L21.008 157.1C20.752 157.676 20.528 158.231 20.336 158.764C20.144 159.298 19.9947 159.82 19.888 160.332C19.7813 160.823 19.728 161.335 19.728 161.868C19.728 162.572 19.824 163.106 20.016 163.468C20.208 163.81 20.496 163.98 20.88 163.98C21.1573 163.98 21.4133 163.895 21.648 163.724C21.8613 163.532 22.096 163.18 22.352 162.668C22.608 162.135 22.9493 161.356 23.376 160.332C23.7813 159.33 24.208 158.466 24.656 157.74C25.0827 157.015 25.6267 156.46 26.288 156.076C26.928 155.671 27.7707 155.468 28.816 155.468ZM11.152 135.761C11.152 132.817 11.792 130.673 13.072 129.329C14.3307 127.964 16.0693 127.281 18.288 127.281C19.2907 127.281 20.2507 127.431 21.168 127.729C22.064 128.028 22.8747 128.529 23.6 129.233C24.304 129.916 24.8587 130.823 25.264 131.953C25.6693 133.084 25.872 134.481 25.872 136.145L25.872 138.225L34 138.225L34 143.057L11.152 143.057L11.152 135.761ZM15.12 136.017L15.12 138.225L21.904 138.225L21.904 136.625C21.904 135.708 21.7867 134.919 21.552 134.257C21.3173 133.596 20.944 133.084 20.432 132.721C19.92 132.359 19.2587 132.177 18.448 132.177C17.3173 132.177 16.4853 132.487 15.952 133.105C15.3973 133.724 15.12 134.695 15.12 136.017ZM25.232 107.476C26.6827 107.476 27.9733 107.678 29.104 108.084C30.2347 108.468 31.1947 109.033 31.984 109.78C32.752 110.505 33.3387 111.39 33.744 112.436C34.128 113.481 34.32 114.665 34.32 115.988C34.32 117.204 34.128 118.334 33.744 119.38C33.3387 120.404 32.752 121.289 31.984 122.036C31.1947 122.782 30.2347 123.369 29.104 123.796C27.9733 124.201 26.6827 124.404 25.232 124.404C23.2907 124.404 21.6587 124.062 20.336 123.38C18.992 122.697 17.968 121.716 17.264 120.436C16.56 119.156 16.208 117.641 16.208 115.892C16.208 114.249 16.56 112.798 17.264 111.54C17.968 110.281 18.992 109.289 20.336 108.564C21.6587 107.838 23.2907 107.476 25.232 107.476ZM25.232 119.54C26.384 119.54 27.3547 119.422 28.144 119.188C28.912 118.932 29.4987 118.537 29.904 118.004C30.288 117.47 30.48 116.777 30.48 115.924C30.48 115.07 30.288 114.388 29.904 113.876C29.4987 113.342 28.912 112.958 28.144 112.724C27.3547 112.468 26.384 112.34 25.232 112.34C24.08 112.34 23.12 112.468 22.352 112.724C21.584 112.958 21.008 113.342 20.624 113.876C20.24 114.409 20.048 115.102 20.048 115.956C20.048 117.214 20.4853 118.132 21.36 118.708C22.2133 119.262 23.504 119.54 25.232 119.54ZM16.208 93.7752C16.208 93.5406 16.2187 93.2632 16.24 92.9432C16.2613 92.6232 16.2933 92.3672 16.336 92.1752L20.816 92.5272C20.7733 92.6766 20.7413 92.9006 20.72 93.1992C20.6773 93.4766 20.656 93.7219 20.656 93.9352C20.656 94.5539 20.7413 95.1512 20.912 95.7272C21.0613 96.3032 21.3067 96.8259 21.648 97.2952C21.9893 97.7432 22.448 98.1059 23.024 98.3832C23.5787 98.6392 24.272 98.7672 25.104 98.7672L34 98.7672L34 103.535L16.528 103.535L16.528 99.9192L19.472 99.2152L19.472 98.9912C18.8747 98.6499 18.3307 98.2232 17.84 97.7112C17.3493 97.1992 16.9547 96.6126 16.656 95.9512C16.3573 95.2686 16.208 94.5432 16.208 93.7752ZM30.512 81.644C30.512 81.1107 30.4587 80.5987 30.352 80.108C30.2453 79.6173 30.1173 79.1267 29.968 78.636L33.52 78.636C33.7333 79.148 33.9147 79.788 34.064 80.556C34.2347 81.3027 34.32 82.124 34.32 83.02C34.32 84.0653 34.1493 85.004 33.808 85.836C33.4667 86.6467 32.88 87.2973 32.048 87.788C31.1947 88.2573 30.0213 88.492 28.528 88.492L20.112 88.492L20.112 90.764L18.096 90.764L16.496 88.14L12.816 86.764L12.816 83.724L16.528 83.724L16.528 78.828L20.112 78.828L20.112 83.724L28.528 83.724C29.1893 83.724 29.6907 83.532 30.032 83.148C30.352 82.764 30.512 82.2627 30.512 81.644ZM34 69.977L34 74.745L11.152 74.745L11.152 61.657L15.12 61.657L15.12 69.977L21.008 69.977L21.008 62.233L24.976 62.233L24.976 69.977L34 69.977ZM25.232 41.6945C26.6827 41.6945 27.9733 41.8972 29.104 42.3025C30.2347 42.6865 31.1947 43.2518 31.984 43.9985C32.752 44.7238 33.3387 45.6092 33.744 46.6545C34.128 47.6998 34.32 48.8838 34.32 50.2065C34.32 51.4225 34.128 52.5532 33.744 53.5985C33.3387 54.6225 32.752 55.5078 31.984 56.2545C31.1947 57.0012 30.2347 57.5878 29.104 58.0145C27.9733 58.4198 26.6827 58.6225 25.232 58.6225C23.2907 58.6225 21.6587 58.2812 20.336 57.5985C18.992 56.9158 17.968 55.9345 17.264 54.6545C16.56 53.3745 16.208 51.8598 16.208 50.1105C16.208 48.4678 16.56 47.0172 17.264 45.7585C17.968 44.4998 18.992 43.5078 20.336 42.7825C21.6587 42.0572 23.2907 41.6945 25.232 41.6945ZM25.232 53.7585C26.384 53.7585 27.3547 53.6412 28.144 53.4065C28.912 53.1505 29.4987 52.7558 29.904 52.2225C30.288 51.6892 30.48 50.9958 30.48 50.1425C30.48 49.2892 30.288 48.6065 29.904 48.0945C29.4987 47.5612 28.912 47.1772 28.144 46.9425C27.3547 46.6865 26.384 46.5585 25.232 46.5585C24.08 46.5585 23.12 46.6865 22.352 46.9425C21.584 47.1772 21.008 47.5612 20.624 48.0945C20.24 48.6278 20.048 49.3212 20.048 50.1745C20.048 51.4332 20.4853 52.3505 21.36 52.9265C22.2133 53.4812 23.504 53.7585 25.232 53.7585ZM34 32.986L34 37.754L9.67999 37.754L9.67999 32.986L34 32.986ZM16.528 23.236L34 23.236L34 28.004L16.528 28.004L16.528 23.236ZM9.67999 25.604C9.67999 24.9 9.85066 24.292 10.192 23.78C10.512 23.268 11.12 23.012 12.016 23.012C12.8907 23.012 13.4987 23.268 13.84 23.78C14.1813 24.292 14.352 24.9 14.352 25.604C14.352 26.3293 14.1813 26.948 13.84 27.46C13.4987 27.9507 12.8907 28.196 12.016 28.196C11.12 28.196 10.512 27.9507 10.192 27.46C9.85066 26.948 9.67999 26.3293 9.67999 25.604ZM25.232 2.382C26.6827 2.382 27.9733 2.58467 29.104 2.99C30.2347 3.374 31.1947 3.93933 31.984 4.686C32.752 5.41133 33.3387 6.29666 33.744 7.342C34.128 8.38733 34.32 9.57133 34.32 10.894C34.32 12.11 34.128 13.2407 33.744 14.286C33.3387 15.31 32.752 16.1953 31.984 16.942C31.1947 17.6887 30.2347 18.2753 29.104 18.702C27.9733 19.1073 26.6827 19.31 25.232 19.31C23.2907 19.31 21.6587 18.9687 20.336 18.286C18.992 17.6033 17.968 16.622 17.264 15.342C16.56 14.062 16.208 12.5473 16.208 10.798C16.208 9.15533 16.56 7.70467 17.264 6.446C17.968 5.18733 18.992 4.19533 20.336 3.47C21.6587 2.74467 23.2907 2.382 25.232 2.382ZM25.232 14.446C26.384 14.446 27.3547 14.3287 28.144 14.094C28.912 13.838 29.4987 13.4433 29.904 12.91C30.288 12.3767 30.48 11.6833 30.48 10.83C30.48 9.97666 30.288 9.294 29.904 8.782C29.4987 8.24866 28.912 7.86466 28.144 7.63C27.3547 7.374 26.384 7.246 25.232 7.246C24.08 7.246 23.12 7.374 22.352 7.63C21.584 7.86467 21.008 8.24867 20.624 8.782C20.24 9.31533 20.048 10.0087 20.048 10.862C20.048 12.1207 20.4853 13.038 21.36 13.614C22.2133 14.1687 23.504 14.446 25.232 14.446Z" fill="#0D0C0C"/>
<path d="M56 194.777L47.2727 197.274L47.2727 195.259L53.3366 193.814L53.3366 193.741L47.2727 192.148L47.2727 190.422L53.3494 188.832L53.3494 188.756L47.2727 187.311L47.2727 185.295L56 187.793L56 189.591L50.294 191.253L50.294 191.321L56 192.979L56 194.777ZM51.6364 176.78C52.5881 176.78 53.3977 176.961 54.0653 177.321C54.733 177.679 55.2429 178.168 55.5952 178.787C55.9446 179.404 56.1193 180.097 56.1193 180.867C56.1193 181.642 55.9432 182.338 55.5909 182.955C55.2386 183.571 54.7287 184.059 54.0611 184.417C53.3935 184.775 52.5852 184.953 51.6364 184.953C50.6847 184.953 49.875 184.775 49.2074 184.417C48.5398 184.059 48.0312 183.571 47.6818 182.955C47.3295 182.338 47.1534 181.642 47.1534 180.867C47.1534 180.097 47.3295 179.404 47.6818 178.787C48.0312 178.168 48.5398 177.679 49.2074 177.321C49.875 176.961 50.6847 176.78 51.6364 176.78ZM51.6364 178.651C51.0199 178.651 50.5 178.743 50.0767 178.928C49.6534 179.11 49.3324 179.367 49.1136 179.699C48.8949 180.032 48.7855 180.421 48.7855 180.867C48.7855 181.313 48.8949 181.702 49.1136 182.034C49.3324 182.367 49.6534 182.625 50.0767 182.81C50.5 182.992 51.0199 183.083 51.6364 183.083C52.2528 183.083 52.7727 182.992 53.196 182.81C53.6193 182.625 53.9403 182.367 54.1591 182.034C54.3778 181.702 54.4872 181.313 54.4872 180.867C54.4872 180.421 54.3778 180.032 54.1591 179.699C53.9403 179.367 53.6193 179.11 53.196 178.928C52.7727 178.743 52.2528 178.651 51.6364 178.651ZM56 175.413L47.2727 175.413L47.2727 171.97C47.2727 171.311 47.3906 170.749 47.6264 170.283C47.8594 169.814 48.1903 169.457 48.6193 169.213C49.0455 168.966 49.5469 168.842 50.1236 168.842C50.7031 168.842 51.2017 168.967 51.6193 169.217C52.0341 169.467 52.3523 169.83 52.5739 170.304C52.7955 170.776 52.9062 171.347 52.9062 172.017L52.9062 174.322L51.4233 174.322L51.4233 172.315C51.4233 171.963 51.375 171.67 51.2784 171.437C51.1818 171.205 51.0369 171.031 50.8437 170.918C50.6506 170.801 50.4105 170.743 50.1236 170.743C49.8338 170.743 49.5895 170.801 49.3906 170.918C49.1918 171.031 49.0412 171.206 48.9389 171.442C48.8338 171.675 48.7812 171.969 48.7812 172.324L48.7812 173.568L56 173.568L56 175.413ZM52.0284 170.7L56 168.531L56 170.568L52.0284 172.69L52.0284 170.7ZM56 167.538L47.2727 167.538L47.2727 165.693L51.1207 165.693L51.1207 165.578L47.2727 162.437L47.2727 160.226L51.1804 163.464L56 160.187L56 162.395L52.4119 164.786L53.5199 165.693L56 165.693L56 167.538ZM56.1278 153.846C56.1278 154.448 56.0199 154.968 55.804 155.405C55.5881 155.843 55.2955 156.179 54.9261 156.415C54.554 156.648 54.1392 156.765 53.6818 156.765C53.3409 156.765 53.0384 156.696 52.7741 156.56C52.5099 156.424 52.267 156.233 52.0455 155.989C51.821 155.745 51.598 155.461 51.3764 155.137L50.2642 153.445C50.125 153.226 49.9787 153.066 49.8253 152.963C49.669 152.861 49.5 152.81 49.3182 152.81C49.1449 152.81 48.9844 152.88 48.8366 153.019C48.6889 153.158 48.6165 153.355 48.6193 153.611C48.6193 153.782 48.6577 153.929 48.7344 154.054C48.8082 154.179 48.9062 154.277 49.0284 154.348C49.1477 154.417 49.2812 154.451 49.429 154.451C49.6108 154.451 49.7955 154.4 49.983 154.297C50.1705 154.195 50.3693 154.059 50.5795 153.888C50.7869 153.718 51.0114 153.532 51.2528 153.33L56 149.192L56 151.084L52.1562 154.536C51.8977 154.763 51.6278 154.99 51.3466 155.218C51.0625 155.442 50.7614 155.63 50.4432 155.78C50.1222 155.931 49.7741 156.006 49.3991 156.006C48.9758 156.006 48.5952 155.908 48.2571 155.712C47.919 155.513 47.652 155.235 47.456 154.877C47.2571 154.519 47.1577 154.101 47.1577 153.624C47.1577 153.158 47.2528 152.756 47.4432 152.418C47.6307 152.077 47.8807 151.816 48.1932 151.634C48.5028 151.449 48.8437 151.357 49.2159 151.357C49.6278 151.357 50.0014 151.459 50.3366 151.664C50.669 151.865 50.9673 152.15 51.2315 152.516L52.5142 154.297C52.6903 154.539 52.8707 154.718 53.0554 154.834C53.2372 154.948 53.4119 155.005 53.5795 155.005C53.7869 155.005 53.973 154.953 54.1378 154.851C54.3026 154.749 54.4332 154.604 54.5298 154.417C54.6236 154.229 54.6705 154.009 54.6705 153.756C54.6705 153.449 54.6009 153.147 54.4616 152.848C54.3196 152.547 54.1193 152.275 53.8608 152.03C53.5994 151.783 53.2898 151.586 52.9318 151.438C52.5739 151.29 52.1776 151.216 51.7429 151.216L51.7429 149.712C52.277 149.712 52.7585 149.77 53.1875 149.887C53.6136 150.003 53.9858 150.165 54.304 150.373C54.6193 150.58 54.8778 150.817 55.0795 151.084C55.1335 151.169 55.1847 151.252 55.233 151.331C55.2812 151.411 55.3324 151.493 55.3864 151.578C55.6477 151.902 55.8366 152.265 55.9531 152.665C56.0696 153.063 56.1278 153.456 56.1278 153.846ZM50.3281 137.924L50.3281 139.79C50.0866 139.825 49.8722 139.894 49.6847 139.999C49.4943 140.104 49.3324 140.239 49.1989 140.404C49.0653 140.569 48.9631 140.759 48.892 140.975C48.821 141.188 48.7855 141.42 48.7855 141.67C48.7855 142.121 48.8977 142.515 49.1222 142.85C49.3437 143.185 49.6676 143.445 50.0937 143.63C50.517 143.815 51.0312 143.907 51.6364 143.907C52.2585 143.907 52.7812 143.815 53.2045 143.63C53.6278 143.442 53.9474 143.181 54.1633 142.846C54.3793 142.511 54.4872 142.123 54.4872 141.683C54.4872 141.435 54.4545 141.207 54.3892 140.996C54.3239 140.783 54.2287 140.594 54.1037 140.43C53.9758 140.265 53.821 140.129 53.6392 140.021C53.4574 139.91 53.25 139.833 53.017 139.79L53.0256 137.924C53.4261 137.972 53.8125 138.093 54.1847 138.286C54.554 138.477 54.8849 138.734 55.1776 139.058C55.4673 139.379 55.6974 139.762 55.8679 140.208C56.0355 140.651 56.1193 141.153 56.1193 141.712C56.1193 142.491 55.9432 143.187 55.5909 143.8C55.2386 144.411 54.7287 144.894 54.0611 145.249C53.3935 145.602 52.5852 145.778 51.6364 145.778C50.6847 145.778 49.875 145.599 49.2074 145.241C48.5398 144.883 48.0312 144.397 47.6818 143.783C47.3295 143.17 47.1534 142.479 47.1534 141.712C47.1534 141.207 47.2244 140.738 47.3665 140.306C47.5085 139.871 47.7159 139.487 47.9886 139.151C48.2585 138.816 48.5895 138.543 48.9815 138.333C49.3736 138.12 49.8224 137.984 50.3281 137.924ZM56 136.601L47.2727 136.601L47.2727 133.158C47.2727 132.499 47.3906 131.936 47.6264 131.47C47.8594 131.001 48.1903 130.645 48.6193 130.401C49.0455 130.153 49.5469 130.03 50.1236 130.03C50.7031 130.03 51.2017 130.155 51.6193 130.405C52.0341 130.655 52.3523 131.017 52.5739 131.491C52.7955 131.963 52.9062 132.534 52.9062 133.205L52.9062 135.51L51.4233 135.51L51.4233 133.503C51.4233 133.151 51.375 132.858 51.2784 132.625C51.1818 132.392 51.0369 132.219 50.8437 132.105C50.6506 131.989 50.4105 131.93 50.1236 131.93C49.8338 131.93 49.5895 131.989 49.3906 132.105C49.1918 132.219 49.0412 132.393 48.9389 132.629C48.8338 132.862 48.7812 133.156 48.7812 133.511L48.7812 134.756L56 134.756L56 136.601ZM52.0284 131.888L56 129.719L56 131.756L52.0284 133.878L52.0284 131.888ZM56 128.726L47.2727 128.726L47.2727 122.845L48.794 122.845L48.794 126.881L50.8736 126.881L50.8736 123.148L52.3949 123.148L52.3949 126.881L54.4787 126.881L54.4787 122.828L56 122.828L56 128.726ZM56 119.874L56 121.851L47.2727 118.838L47.2727 116.461L56 113.452L56 115.429L49.267 117.615L49.267 117.684L56 119.874ZM52.5696 119.998L52.5696 115.327L54.0099 115.327L54.0099 119.998L52.5696 119.998ZM48.794 113.8L47.2727 113.8L47.2727 106.633L48.794 106.633L48.794 109.305L56 109.305L56 111.129L48.794 111.129L48.794 113.8ZM56 105.452L47.2727 105.452L47.2727 99.5717L48.794 99.5717L48.794 103.607L50.8736 103.607L50.8736 99.8743L52.3949 99.8743L52.3949 103.607L54.4787 103.607L54.4787 99.5547L56 99.5547L56 105.452ZM56.1278 92.6854C56.1278 93.2876 56.0199 93.8075 55.804 94.245C55.5881 94.6825 55.2955 95.0192 54.9261 95.255C54.554 95.4879 54.1392 95.6044 53.6818 95.6044C53.3409 95.6044 53.0383 95.5362 52.7741 95.3999C52.5099 95.2635 52.267 95.0732 52.0454 94.8288C51.821 94.5845 51.598 94.3004 51.3764 93.9766L50.2642 92.2848C50.125 92.0661 49.9787 91.9055 49.8253 91.8033C49.669 91.701 49.5 91.6499 49.3182 91.6499C49.1449 91.6499 48.9844 91.7195 48.8366 91.8587C48.6889 91.9979 48.6165 92.1953 48.6193 92.451C48.6193 92.6214 48.6577 92.7692 48.7344 92.8942C48.8082 93.0192 48.9062 93.1172 49.0284 93.1882C49.1477 93.2564 49.2812 93.2905 49.429 93.2905C49.6108 93.2905 49.7954 93.2393 49.9829 93.1371C50.1704 93.0348 50.3693 92.8984 50.5795 92.728C50.7869 92.5575 51.0114 92.3714 51.2528 92.1697L56 88.032L56 89.924L52.1562 93.3757C51.8977 93.603 51.6278 93.8303 51.3466 94.0575C51.0625 94.282 50.7614 94.4695 50.4432 94.62C50.1222 94.7706 49.7741 94.8459 49.3991 94.8459C48.9758 94.8459 48.5952 94.7479 48.2571 94.5518C47.919 94.353 47.652 94.0746 47.456 93.7166C47.2571 93.3587 47.1577 92.9411 47.1577 92.4638C47.1577 91.9979 47.2528 91.5959 47.4432 91.2578C47.6307 90.9169 47.8807 90.6555 48.1932 90.4737C48.5028 90.2891 48.8437 90.1967 49.2159 90.1967C49.6278 90.1967 50.0014 90.299 50.3366 90.5036C50.669 90.7053 50.9673 90.9893 51.2315 91.3558L52.5142 93.1371C52.6903 93.3786 52.8707 93.5575 53.0554 93.674C53.2372 93.7876 53.4119 93.8445 53.5795 93.8445C53.7869 93.8445 53.973 93.7933 54.1378 93.6911C54.3026 93.5888 54.4332 93.4439 54.5298 93.2564C54.6236 93.0689 54.6704 92.8487 54.6704 92.5959C54.6704 92.2891 54.6008 91.9865 54.4616 91.6882C54.3196 91.3871 54.1193 91.1143 53.8608 90.87C53.5994 90.6229 53.2898 90.4254 52.9318 90.2777C52.5739 90.13 52.1776 90.0561 51.7429 90.0561L51.7429 88.5518C52.277 88.5518 52.7585 88.6101 53.1875 88.7266C53.6136 88.843 53.9858 89.005 54.304 89.2124C54.6193 89.4197 54.8778 89.657 55.0795 89.924C55.1335 90.0092 55.1847 90.0916 55.2329 90.1712C55.2812 90.2507 55.3324 90.3331 55.3864 90.4183C55.6477 90.7422 55.8366 91.1044 55.9531 91.505C56.0696 91.9027 56.1278 92.2962 56.1278 92.6854ZM56 84.4641L47.2727 84.4641L47.2727 81.021C47.2727 80.359 47.3991 79.7951 47.652 79.3292C47.902 78.8633 48.25 78.5082 48.696 78.2638C49.1392 78.0167 49.6506 77.8931 50.2301 77.8931C50.8097 77.8931 51.321 78.0181 51.7642 78.2681C52.2074 78.5181 52.5526 78.8803 52.7997 79.3548C53.0469 79.8263 53.1704 80.3974 53.1704 81.0678L53.1704 83.2624L51.6918 83.2624L51.6918 81.3661C51.6918 81.011 51.6307 80.7184 51.5085 80.4883C51.3835 80.2553 51.2116 80.082 50.9929 79.9684C50.7713 79.8519 50.517 79.7937 50.2301 79.7937C49.9403 79.7937 49.6875 79.8519 49.4716 79.9684C49.2528 80.082 49.0838 80.2553 48.9645 80.4883C48.8423 80.7212 48.7812 81.0167 48.7812 81.3746L48.7812 82.619L56 82.619L56 84.4641ZM56 76.1982L56 78.1754L47.2727 75.1626L47.2727 72.7848L56 69.7763L56 71.7536L49.267 73.9396L49.267 74.0078L56 76.1982ZM52.5696 76.3217L52.5696 71.6513L54.0099 71.6513L54.0099 76.3217L52.5696 76.3217ZM49.7827 64.1907C49.4389 64.2248 49.1719 64.3711 48.9815 64.6296C48.7912 64.8881 48.696 65.239 48.696 65.6822C48.696 65.9833 48.7386 66.2376 48.8239 66.445C48.9062 66.6523 49.0213 66.8114 49.169 66.9222C49.3168 67.0302 49.4844 67.0842 49.6719 67.0842C49.8281 67.0898 49.9645 67.0572 50.081 66.9862C50.1974 66.9123 50.2983 66.8114 50.3835 66.6836C50.4659 66.5558 50.5383 66.408 50.6008 66.2404C50.6605 66.0728 50.7116 65.8938 50.7543 65.7035L50.9418 64.9194C51.027 64.5387 51.1406 64.1893 51.2827 63.8711C51.4247 63.5529 51.5994 63.2773 51.8068 63.0444C52.0142 62.8114 52.2585 62.631 52.5398 62.5032C52.821 62.3725 53.1435 62.3058 53.5071 62.3029C54.0412 62.3058 54.5043 62.4421 54.8963 62.712C55.2855 62.979 55.5881 63.3654 55.804 63.8711C56.017 64.3739 56.1236 64.9805 56.1236 65.6907C56.1236 66.3952 56.0156 67.0089 55.7997 67.5316C55.5838 68.0515 55.2642 68.4577 54.8409 68.7504C54.4148 69.0401 53.8878 69.1921 53.2599 69.2063L53.2599 67.4208C53.5526 67.4009 53.7969 67.3171 53.9929 67.1694C54.1861 67.0188 54.3324 66.8185 54.4318 66.5685C54.5284 66.3157 54.5767 66.0302 54.5767 65.712C54.5767 65.3995 54.5312 65.1282 54.4403 64.8981C54.3494 64.6651 54.223 64.4847 54.0611 64.3569C53.8991 64.229 53.7131 64.1651 53.5028 64.1651C53.3068 64.1651 53.142 64.2234 53.0085 64.3398C52.875 64.4535 52.7614 64.6211 52.6676 64.8427C52.5739 65.0614 52.4886 65.3299 52.4119 65.6481L52.1733 66.5984C51.9943 67.3342 51.7145 67.9151 51.3338 68.3413C50.9531 68.7674 50.4403 68.979 49.7954 68.9762C49.267 68.979 48.8054 68.8384 48.4105 68.5543C48.0156 68.2674 47.7074 67.8739 47.4858 67.3739C47.2642 66.8739 47.1534 66.3058 47.1534 65.6694C47.1534 65.0217 47.2642 64.4563 47.4858 63.9734C47.7074 63.4876 48.0156 63.1097 48.4105 62.8398C48.8054 62.57 49.2628 62.4308 49.7827 62.4222L49.7827 64.1907ZM49.7827 56.3274C49.4389 56.3615 49.1719 56.5078 48.9815 56.7663C48.7912 57.0249 48.696 57.3757 48.696 57.8189C48.696 58.12 48.7386 58.3743 48.8239 58.5817C48.9062 58.7891 49.0213 58.9482 49.169 59.0589C49.3168 59.1669 49.4844 59.2209 49.6719 59.2209C49.8281 59.2266 49.9645 59.1939 50.081 59.1229C50.1974 59.049 50.2983 58.9482 50.3835 58.8203C50.4659 58.6925 50.5383 58.5447 50.6008 58.3771C50.6605 58.2095 50.7116 58.0305 50.7543 57.8402L50.9418 57.0561C51.027 56.6754 51.1406 56.326 51.2827 56.0078C51.4247 55.6896 51.5994 55.4141 51.8068 55.1811C52.0142 54.9482 52.2585 54.7678 52.5398 54.6399C52.821 54.5092 53.1435 54.4425 53.5071 54.4396C54.0412 54.4425 54.5043 54.5788 54.8963 54.8487C55.2855 55.1158 55.5881 55.5021 55.804 56.0078C56.017 56.5107 56.1236 57.1172 56.1236 57.8274C56.1236 58.532 56.0156 59.1456 55.7997 59.6683C55.5838 60.1882 55.2642 60.5945 54.8409 60.8871C54.4148 61.1768 53.8878 61.3288 53.2599 61.343L53.2599 59.5575C53.5526 59.5376 53.7969 59.4538 53.9929 59.3061C54.1861 59.1555 54.3324 58.9553 54.4318 58.7053C54.5284 58.4524 54.5767 58.1669 54.5767 57.8487C54.5767 57.5362 54.5312 57.2649 54.4403 57.0348C54.3494 56.8018 54.223 56.6214 54.0611 56.4936C53.8991 56.3658 53.7131 56.3018 53.5028 56.3018C53.3068 56.3018 53.142 56.3601 53.0085 56.4766C52.875 56.5902 52.7614 56.7578 52.6676 56.9794C52.5739 57.1982 52.4886 57.4666 52.4119 57.7848L52.1733 58.7351C51.9943 59.4709 51.7145 60.0518 51.3338 60.478C50.9531 60.9041 50.4403 61.1158 49.7954 61.1129C49.267 61.1158 48.8054 60.9751 48.4105 60.6911C48.0156 60.4041 47.7074 60.0107 47.4858 59.5107C47.2642 59.0107 47.1534 58.4425 47.1534 57.8061C47.1534 57.1584 47.2642 56.593 47.4858 56.1101C47.7074 55.6243 48.0156 55.2464 48.4105 54.9766C48.8054 54.7067 49.2628 54.5675 49.7827 54.5589L49.7827 56.3274ZM47.2727 51.3533L56 51.3533L56 53.1985L47.2727 53.1985L47.2727 51.3533ZM51.6364 41.8153C52.5881 41.8153 53.3977 41.9957 54.0653 42.3565C54.7329 42.7145 55.2429 43.2031 55.5952 43.8224C55.9446 44.4389 56.1193 45.1321 56.1193 45.902C56.1193 46.6776 55.9432 47.3736 55.5909 47.9901C55.2386 48.6065 54.7287 49.0937 54.0611 49.4517C53.3935 49.8097 52.5852 49.9886 51.6364 49.9886C50.6847 49.9886 49.875 49.8097 49.2074 49.4517C48.5398 49.0937 48.0312 48.6065 47.6818 47.9901C47.3295 47.3736 47.1534 46.6776 47.1534 45.902C47.1534 45.1321 47.3295 44.4389 47.6818 43.8224C48.0312 43.2031 48.5398 42.7145 49.2074 42.3565C49.875 41.9957 50.6847 41.8153 51.6364 41.8153ZM51.6364 43.6861C51.0199 43.6861 50.5 43.7784 50.0767 43.9631C49.6534 44.1449 49.3324 44.402 49.1136 44.7344C48.8949 45.0668 48.7855 45.456 48.7855 45.902C48.7855 46.348 48.8949 46.7372 49.1136 47.0696C49.3324 47.402 49.6534 47.6605 50.0767 47.8452C50.5 48.027 51.0199 48.1179 51.6364 48.1179C52.2528 48.1179 52.7727 48.027 53.196 47.8452C53.6193 47.6605 53.9403 47.402 54.1591 47.0696C54.3778 46.7372 54.4872 46.348 54.4872 45.902C54.4872 45.456 54.3778 45.0668 54.1591 44.7344C53.9403 44.402 53.6193 44.1449 53.196 43.9631C52.7727 43.7784 52.2528 43.6861 51.6364 43.6861ZM47.2727 33.1488L56 33.1488L56 34.7425L50.5071 38.5394L50.5071 38.6033L56 38.6033L56 40.4485L47.2727 40.4485L47.2727 38.8292L52.7614 35.0621L52.7614 34.9854L47.2727 34.9854L47.2727 33.1488Z" fill="#0D0C0C"/>
</svg>
