<svg width="643" height="130" viewBox="0 0 643 130" fill="none" xmlns="http://www.w3.org/2000/svg">
<path d="M54.8136 7.82247C58.2747 5.8242 62.5389 5.8242 66 7.82246L107.127 31.5674C110.588 33.5656 112.721 37.2586 112.721 41.2551V88.7449C112.721 92.7414 110.588 96.4344 107.127 98.4326L66 122.178C62.5389 124.176 58.2747 124.176 54.8136 122.178L13.6862 98.4326C10.2251 96.4344 8.09298 92.7414 8.09298 88.7449V41.2551C8.09298 37.2586 10.2251 33.5656 13.6862 31.5674L54.8136 7.82247Z" fill="white"/>
<path d="M33.4894 82.7586L15.661 64.9301L33.4894 47.1017L37.6494 51.2617L23.9809 64.9301L37.6494 78.5986L33.4894 82.7586Z" fill="#0D0C0C"/>
<path d="M67.6779 47.1017L57.928 83.3242H52.5065L62.2564 47.1017H67.6779Z" fill="#0D0C0C"/>
<path d="M86.6948 82.7586L104.523 64.9301L86.6948 47.1017L82.5348 51.2617L96.2033 64.9301L82.5348 78.5986L86.6948 82.7586Z" fill="#0D0C0C"/>
<path d="M168.584 62.8245C168.584 65.8315 167.844 68.4565 166.365 70.6998C164.885 72.9431 162.737 74.6852 159.921 75.9261C157.153 77.1193 153.764 77.7159 149.755 77.7159C147.989 77.7159 146.247 77.5966 144.529 77.358C142.858 77.1193 141.236 76.7852 139.66 76.3557C138.133 75.8784 136.677 75.3056 135.293 74.6374V64.5428C137.727 65.5928 140.233 66.5713 142.811 67.4781C145.436 68.3372 148.037 68.7668 150.614 68.7668C152.38 68.7668 153.788 68.5281 154.838 68.0508C155.936 67.5736 156.724 66.9292 157.201 66.1178C157.726 65.3064 157.988 64.3757 157.988 63.3257C157.988 62.037 157.535 60.9393 156.628 60.0324C155.769 59.1256 154.6 58.2903 153.12 57.5266C151.64 56.7153 149.946 55.8561 148.037 54.9493C146.844 54.3765 145.555 53.7083 144.171 52.9447C142.787 52.1333 141.45 51.1548 140.162 50.0094C138.921 48.8161 137.895 47.3843 137.083 45.7138C136.272 44.0433 135.866 42.0386 135.866 39.6999C135.866 36.6453 136.558 34.0441 137.942 31.8963C139.374 29.7007 141.379 28.0302 143.956 26.8847C146.581 25.7392 149.66 25.1665 153.192 25.1665C155.864 25.1665 158.394 25.4767 160.78 26.0972C163.215 26.7177 165.744 27.6007 168.369 28.7462L164.861 37.1942C162.523 36.2396 160.423 35.4998 158.561 34.9748C156.7 34.4498 154.791 34.1872 152.834 34.1872C151.497 34.1872 150.352 34.402 149.397 34.8316C148.443 35.2611 147.703 35.8578 147.178 36.6214C146.7 37.3851 146.462 38.2919 146.462 39.342C146.462 40.5352 146.82 41.5614 147.536 42.4205C148.252 43.2319 149.326 44.0194 150.757 44.783C152.189 45.5467 153.979 46.4536 156.127 47.5036C158.752 48.7445 160.971 50.0332 162.785 51.3696C164.647 52.706 166.078 54.2811 167.081 56.0948C168.083 57.9085 168.584 60.1517 168.584 62.8245ZM208.016 62.8245C208.016 65.8315 207.277 68.4565 205.797 70.6998C204.317 72.9431 202.17 74.6852 199.354 75.9261C196.585 77.1193 193.197 77.7159 189.187 77.7159C187.421 77.7159 185.679 77.5966 183.961 77.358C182.291 77.1193 180.668 76.7852 179.093 76.3557C177.565 75.8784 176.11 75.3056 174.725 74.6374V64.5428C177.16 65.5928 179.665 66.5713 182.243 67.4781C184.868 68.3372 187.469 68.7668 190.046 68.7668C191.812 68.7668 193.22 68.5281 194.27 68.0508C195.368 67.5736 196.156 66.9292 196.633 66.1178C197.158 65.3064 197.421 64.3757 197.421 63.3257C197.421 62.037 196.967 60.9393 196.06 60.0324C195.201 59.1256 194.032 58.2903 192.552 57.5266C191.073 56.7153 189.378 55.8561 187.469 54.9493C186.276 54.3765 184.987 53.7083 183.603 52.9447C182.219 52.1333 180.883 51.1548 179.594 50.0094C178.353 48.8161 177.327 47.3843 176.515 45.7138C175.704 44.0433 175.298 42.0386 175.298 39.6999C175.298 36.6453 175.99 34.0441 177.374 31.8963C178.806 29.7007 180.811 28.0302 183.388 26.8847C186.013 25.7392 189.092 25.1665 192.624 25.1665C195.297 25.1665 197.826 25.4767 200.213 26.0972C202.647 26.7177 205.176 27.6007 207.802 28.7462L204.293 37.1942C201.955 36.2396 199.855 35.4998 197.993 34.9748C196.132 34.4498 194.223 34.1872 192.266 34.1872C190.929 34.1872 189.784 34.402 188.829 34.8316C187.875 35.2611 187.135 35.8578 186.61 36.6214C186.133 37.3851 185.894 38.2919 185.894 39.342C185.894 40.5352 186.252 41.5614 186.968 42.4205C187.684 43.2319 188.758 44.0194 190.19 44.783C191.621 45.5467 193.411 46.4536 195.559 47.5036C198.184 48.7445 200.404 50.0332 202.217 51.3696C204.079 52.706 205.511 54.2811 206.513 56.0948C207.515 57.9085 208.016 60.1517 208.016 62.8245ZM247.449 62.8245C247.449 65.8315 246.709 68.4565 245.229 70.6998C243.75 72.9431 241.602 74.6852 238.786 75.9261C236.017 77.1193 232.629 77.7159 228.62 77.7159C226.854 77.7159 225.111 77.5966 223.393 77.358C221.723 77.1193 220.1 76.7852 218.525 76.3557C216.998 75.8784 215.542 75.3056 214.158 74.6374V64.5428C216.592 65.5928 219.098 66.5713 221.675 67.4781C224.3 68.3372 226.901 68.7668 229.479 68.7668C231.245 68.7668 232.653 68.5281 233.703 68.0508C234.8 67.5736 235.588 66.9292 236.065 66.1178C236.59 65.3064 236.853 64.3757 236.853 63.3257C236.853 62.037 236.399 60.9393 235.492 60.0324C234.633 59.1256 233.464 58.2903 231.984 57.5266C230.505 56.7153 228.81 55.8561 226.901 54.9493C225.708 54.3765 224.419 53.7083 223.035 52.9447C221.651 52.1333 220.315 51.1548 219.026 50.0094C217.785 48.8161 216.759 47.3843 215.948 45.7138C215.136 44.0433 214.73 42.0386 214.73 39.6999C214.73 36.6453 215.423 34.0441 216.807 31.8963C218.239 29.7007 220.243 28.0302 222.82 26.8847C225.446 25.7392 228.524 25.1665 232.056 25.1665C234.729 25.1665 237.258 25.4767 239.645 26.0972C242.079 26.7177 244.609 27.6007 247.234 28.7462L243.726 37.1942C241.387 36.2396 239.287 35.4998 237.425 34.9748C235.564 34.4498 233.655 34.1872 231.698 34.1872C230.362 34.1872 229.216 34.402 228.262 34.8316C227.307 35.2611 226.567 35.8578 226.042 36.6214C225.565 37.3851 225.326 38.2919 225.326 39.342C225.326 40.5352 225.684 41.5614 226.4 42.4205C227.116 43.2319 228.19 44.0194 229.622 44.783C231.054 45.5467 232.844 46.4536 234.991 47.5036C237.616 48.7445 239.836 50.0332 241.649 51.3696C243.511 52.706 244.943 54.2811 245.945 56.0948C246.947 57.9085 247.449 60.1517 247.449 62.8245ZM264.973 26.67C264.544 28.3405 263.995 30.1542 263.327 32.111C262.658 34.0202 261.942 35.9532 261.179 37.9101C260.415 39.8193 259.628 41.6568 258.816 43.4228H251.156C251.49 41.9909 251.824 40.5113 252.158 38.984C252.492 37.4567 252.802 35.9294 253.089 34.402C253.423 32.827 253.709 31.3235 253.948 29.8917C254.234 28.4598 254.473 27.1234 254.664 25.8824H264.472L264.973 26.67ZM296.512 65.4019C296.512 68.027 295.891 70.2702 294.65 72.1317C293.409 73.9454 291.548 75.3295 289.066 76.2841C286.584 77.2386 283.506 77.7159 279.831 77.7159C277.11 77.7159 274.771 77.525 272.814 77.1432C270.857 76.8091 268.901 76.2363 266.944 75.4249V66.619C269.044 67.5736 271.311 68.3611 273.745 68.9816C276.179 69.602 278.327 69.9123 280.188 69.9123C282.289 69.9123 283.768 69.602 284.627 68.9816C285.534 68.3611 285.988 67.5497 285.988 66.5474C285.988 65.8792 285.797 65.2826 285.415 64.7576C285.081 64.2325 284.317 63.6359 283.124 62.9677C281.931 62.2995 280.069 61.4404 277.54 60.3904C275.105 59.3403 273.101 58.3142 271.526 57.3119C269.951 56.2618 268.781 55.0209 268.018 53.589C267.254 52.1094 266.872 50.2719 266.872 48.0763C266.872 44.4489 268.28 41.7284 271.096 39.9147C273.912 38.101 277.659 37.1942 282.336 37.1942C284.77 37.1942 287.085 37.4328 289.281 37.9101C291.476 38.3874 293.743 39.1749 296.082 40.2727L292.86 47.9331C291.572 47.3604 290.331 46.8593 289.138 46.4297C287.944 46.0001 286.775 45.666 285.63 45.4274C284.532 45.1887 283.386 45.0694 282.193 45.0694C280.618 45.0694 279.425 45.2842 278.613 45.7138C277.85 46.1433 277.468 46.7877 277.468 47.6468C277.468 48.2673 277.659 48.84 278.041 49.365C278.47 49.8423 279.258 50.3673 280.403 50.9401C281.596 51.5128 283.339 52.2765 285.63 53.231C287.873 54.1379 289.806 55.0925 291.429 56.0948C293.051 57.0494 294.292 58.2664 295.151 59.746C296.058 61.1779 296.512 63.0632 296.512 65.4019ZM340.601 25.8824C347.188 25.8824 351.985 27.3143 354.992 30.178C358.046 32.994 359.574 36.8839 359.574 41.8477C359.574 44.091 359.239 46.2388 358.571 48.2911C357.903 50.2957 356.781 52.1094 355.206 53.7322C353.679 55.3073 351.651 56.5482 349.121 57.455C346.591 58.3619 343.465 58.8153 339.742 58.8153H335.089V77H324.278V25.8824H340.601ZM340.029 34.76H335.089V49.9378H338.668C340.721 49.9378 342.487 49.6753 343.966 49.1502C345.446 48.6252 346.591 47.79 347.403 46.6445C348.214 45.499 348.62 44.0194 348.62 42.2057C348.62 39.6761 347.928 37.8146 346.544 36.6214C345.159 35.3805 342.988 34.76 340.029 34.76ZM403.885 57.3835C403.885 60.629 403.431 63.5166 402.525 66.0462C401.665 68.5759 400.401 70.7237 398.73 72.4896C397.107 74.2079 395.127 75.5204 392.788 76.4273C390.449 77.2864 387.8 77.7159 384.841 77.7159C382.12 77.7159 379.591 77.2864 377.252 76.4273C374.961 75.5204 372.98 74.2079 371.31 72.4896C369.639 70.7237 368.327 68.5759 367.372 66.0462C366.465 63.5166 366.012 60.629 366.012 57.3835C366.012 53.0401 366.776 49.3889 368.303 46.4297C369.83 43.4228 372.026 41.1318 374.89 39.5567C377.753 37.9817 381.142 37.1942 385.056 37.1942C388.731 37.1942 391.976 37.9817 394.792 39.5567C397.608 41.1318 399.828 43.4228 401.451 46.4297C403.073 49.3889 403.885 53.0401 403.885 57.3835ZM376.894 57.3835C376.894 59.9608 377.157 62.1325 377.682 63.8984C378.254 65.6167 379.137 66.9292 380.331 67.8361C381.524 68.6952 383.075 69.1247 384.984 69.1247C386.893 69.1247 388.421 68.6952 389.566 67.8361C390.759 66.9292 391.618 65.6167 392.143 63.8984C392.716 62.1325 393.003 59.9608 393.003 57.3835C393.003 54.8061 392.716 52.6583 392.143 50.9401C391.618 49.2218 390.759 47.9332 389.566 47.074C388.373 46.2149 386.822 45.7854 384.913 45.7854C382.097 45.7854 380.044 46.7638 378.756 48.7207C377.515 50.6298 376.894 53.5174 376.894 57.3835ZM434.537 37.1942C435.062 37.1942 435.682 37.218 436.398 37.2658C437.114 37.3135 437.687 37.3851 438.116 37.4805L437.329 47.5036C436.995 47.4081 436.494 47.3365 435.825 47.2888C435.205 47.1934 434.656 47.1456 434.179 47.1456C432.795 47.1456 431.458 47.3365 430.17 47.7184C428.881 48.0525 427.712 48.6014 426.661 49.365C425.659 50.1287 424.848 51.1548 424.227 52.4435C423.655 53.6845 423.368 55.2357 423.368 57.0971V77H412.701V37.9101H420.791L422.366 44.4967H422.867C423.631 43.1603 424.585 41.9432 425.731 40.8454C426.876 39.7477 428.189 38.8647 429.668 38.1965C431.196 37.5283 432.819 37.1942 434.537 37.1942ZM461.678 69.1963C462.871 69.1963 464.017 69.077 465.114 68.8384C466.212 68.5997 467.31 68.3134 468.408 67.9793V75.9261C467.262 76.4034 465.83 76.8091 464.112 77.1432C462.442 77.525 460.604 77.7159 458.599 77.7159C456.261 77.7159 454.161 77.3341 452.299 76.5704C450.485 75.8068 449.03 74.4942 447.932 72.6328C446.882 70.7237 446.357 68.0986 446.357 64.7576V45.9285H441.274V41.4182L447.144 37.8385L450.223 29.6053H457.024V37.9101H467.978V45.9285H457.024V64.7576C457.024 66.2372 457.454 67.3588 458.313 68.1224C459.172 68.8384 460.294 69.1963 461.678 69.1963ZM487.78 77H477.113V25.8824H506.395V34.76H487.78V47.9331H505.106V56.8107H487.78V77ZM551.056 57.3835C551.056 60.629 550.603 63.5166 549.696 66.0462C548.837 68.5759 547.572 70.7237 545.902 72.4896C544.279 74.2079 542.298 75.5204 539.959 76.4273C537.621 77.2864 534.972 77.7159 532.013 77.7159C529.292 77.7159 526.762 77.2864 524.424 76.4273C522.133 75.5204 520.152 74.2079 518.481 72.4896C516.811 70.7237 515.498 68.5759 514.544 66.0462C513.637 63.5166 513.184 60.629 513.184 57.3835C513.184 53.0401 513.947 49.3889 515.475 46.4297C517.002 43.4228 519.197 41.1318 522.061 39.5567C524.925 37.9817 528.314 37.1942 532.227 37.1942C535.902 37.1942 539.148 37.9817 541.964 39.5567C544.78 41.1318 546.999 43.4228 548.622 46.4297C550.245 49.3889 551.056 53.0401 551.056 57.3835ZM524.066 57.3835C524.066 59.9608 524.328 62.1325 524.853 63.8984C525.426 65.6167 526.309 66.9292 527.502 67.8361C528.695 68.6952 530.247 69.1247 532.156 69.1247C534.065 69.1247 535.592 68.6952 536.738 67.8361C537.931 66.9292 538.79 65.6167 539.315 63.8984C539.888 62.1325 540.174 59.9608 540.174 57.3835C540.174 54.8061 539.888 52.6583 539.315 50.9401C538.79 49.2218 537.931 47.9332 536.738 47.074C535.545 46.2149 533.993 45.7854 532.084 45.7854C529.268 45.7854 527.216 46.7638 525.927 48.7207C524.686 50.6298 524.066 53.5174 524.066 57.3835ZM570.54 77H559.872V22.5891H570.54V77ZM592.353 37.9101V77H581.686V37.9101H592.353ZM587.055 22.5891C588.631 22.5891 589.991 22.971 591.136 23.7346C592.282 24.4506 592.855 25.8108 592.855 27.8155C592.855 29.7723 592.282 31.1326 591.136 31.8963C589.991 32.6599 588.631 33.0418 587.055 33.0418C585.433 33.0418 584.049 32.6599 582.903 31.8963C581.805 31.1326 581.256 29.7723 581.256 27.8155C581.256 25.8108 581.805 24.4506 582.903 23.7346C584.049 22.971 585.433 22.5891 587.055 22.5891ZM639.01 57.3835C639.01 60.629 638.556 63.5166 637.65 66.0462C636.79 68.5759 635.526 70.7237 633.855 72.4896C632.232 74.2079 630.252 75.5204 627.913 76.4273C625.574 77.2864 622.925 77.7159 619.966 77.7159C617.245 77.7159 614.716 77.2864 612.377 76.4273C610.086 75.5204 608.105 74.2079 606.435 72.4896C604.764 70.7237 603.452 68.5759 602.497 66.0462C601.59 63.5166 601.137 60.629 601.137 57.3835C601.137 53.0401 601.901 49.3889 603.428 46.4297C604.955 43.4228 607.151 41.1318 610.015 39.5567C612.878 37.9817 616.267 37.1942 620.181 37.1942C623.856 37.1942 627.101 37.9817 629.917 39.5567C632.733 41.1318 634.953 43.4228 636.576 46.4297C638.198 49.3889 639.01 53.0401 639.01 57.3835ZM612.019 57.3835C612.019 59.9608 612.282 62.1325 612.807 63.8984C613.379 65.6167 614.262 66.9292 615.456 67.8361C616.649 68.6952 618.2 69.1247 620.109 69.1247C622.018 69.1247 623.546 68.6952 624.691 67.8361C625.884 66.9292 626.743 65.6167 627.269 63.8984C627.841 62.1325 628.128 59.9608 628.128 57.3835C628.128 54.8061 627.841 52.6583 627.269 50.9401C626.743 49.2218 625.884 47.9332 624.691 47.074C623.498 46.2149 621.947 45.7854 620.038 45.7854C617.222 45.7854 615.169 46.7638 613.881 48.7207C612.64 50.6298 612.019 53.5174 612.019 57.3835Z" fill="white"/>
<path d="M279.092 124L273.505 104.475H278.015L281.247 118.041H281.409L284.975 104.475H288.836L292.392 118.07H292.564L295.796 104.475H300.305L294.718 124H290.695L286.977 111.234H286.824L283.115 124H279.092ZM319.356 114.237C319.356 116.367 318.953 118.178 318.145 119.672C317.345 121.165 316.251 122.306 314.866 123.094C313.486 123.876 311.936 124.267 310.213 124.267C308.478 124.267 306.921 123.873 305.542 123.085C304.162 122.297 303.072 121.156 302.271 119.662C301.471 118.168 301.07 116.36 301.07 114.237C301.07 112.108 301.471 110.297 302.271 108.803C303.072 107.309 304.162 106.172 305.542 105.39C306.921 104.602 308.478 104.208 310.213 104.208C311.936 104.208 313.486 104.602 314.866 105.39C316.251 106.172 317.345 107.309 318.145 108.803C318.953 110.297 319.356 112.108 319.356 114.237ZM315.171 114.237C315.171 112.858 314.964 111.695 314.551 110.748C314.144 109.801 313.569 109.083 312.825 108.593C312.082 108.104 311.211 107.859 310.213 107.859C309.215 107.859 308.345 108.104 307.601 108.593C306.857 109.083 306.279 109.801 305.866 110.748C305.459 111.695 305.256 112.858 305.256 114.237C305.256 115.617 305.459 116.78 305.866 117.727C306.279 118.674 306.857 119.392 307.601 119.881C308.345 120.371 309.215 120.615 310.213 120.615C311.211 120.615 312.082 120.371 312.825 119.881C313.569 119.392 314.144 118.674 314.551 117.727C314.964 116.78 315.171 115.617 315.171 114.237ZM322.414 124V104.475H330.118C331.592 104.475 332.851 104.738 333.893 105.266C334.942 105.787 335.739 106.528 336.286 107.487C336.839 108.441 337.115 109.562 337.115 110.853C337.115 112.149 336.836 113.265 336.276 114.199C335.717 115.127 334.907 115.839 333.845 116.335C332.79 116.831 331.513 117.078 330.013 117.078H324.855V113.761H329.345C330.133 113.761 330.788 113.653 331.309 113.436C331.831 113.22 332.218 112.896 332.472 112.464C332.733 112.032 332.863 111.495 332.863 110.853C332.863 110.204 332.733 109.658 332.472 109.213C332.218 108.768 331.827 108.431 331.3 108.202C330.779 107.967 330.121 107.85 329.326 107.85H326.542V124H322.414ZM332.959 115.114L337.811 124H333.254L328.506 115.114H332.959ZM340.033 124V104.475H344.161V113.084H344.418L351.445 104.475H356.393L349.147 113.217L356.479 124H351.54L346.192 115.972L344.161 118.451V124H340.033ZM370.668 124.286C369.32 124.286 368.157 124.044 367.178 123.561C366.199 123.078 365.446 122.424 364.919 121.597C364.398 120.765 364.137 119.837 364.137 118.814C364.137 118.051 364.289 117.374 364.595 116.783C364.9 116.192 365.325 115.648 365.872 115.153C366.419 114.65 367.054 114.151 367.779 113.656L371.564 111.167C372.053 110.856 372.412 110.529 372.641 110.185C372.87 109.836 372.984 109.458 372.984 109.051C372.984 108.663 372.829 108.304 372.517 107.974C372.206 107.643 371.764 107.481 371.192 107.487C370.811 107.487 370.48 107.573 370.2 107.745C369.921 107.91 369.702 108.129 369.543 108.403C369.39 108.669 369.314 108.968 369.314 109.299C369.314 109.706 369.428 110.119 369.657 110.538C369.886 110.958 370.191 111.403 370.572 111.873C370.954 112.337 371.37 112.839 371.821 113.379L381.079 124H376.846L369.123 115.4C368.615 114.822 368.106 114.218 367.598 113.589C367.096 112.953 366.676 112.28 366.339 111.568C366.002 110.85 365.834 110.071 365.834 109.232C365.834 108.285 366.053 107.433 366.492 106.677C366.937 105.921 367.56 105.323 368.36 104.885C369.161 104.44 370.096 104.217 371.163 104.217C372.206 104.217 373.105 104.43 373.861 104.856C374.624 105.275 375.209 105.835 375.616 106.534C376.029 107.227 376.235 107.989 376.235 108.822C376.235 109.744 376.007 110.579 375.549 111.329C375.098 112.073 374.462 112.74 373.642 113.332L369.657 116.201C369.117 116.595 368.716 116.999 368.456 117.412C368.202 117.819 368.074 118.21 368.074 118.585C368.074 119.049 368.189 119.465 368.418 119.834C368.646 120.202 368.971 120.495 369.39 120.711C369.81 120.921 370.302 121.025 370.868 121.025C371.554 121.025 372.231 120.87 372.899 120.558C373.572 120.24 374.182 119.792 374.729 119.214C375.282 118.629 375.724 117.936 376.054 117.136C376.385 116.335 376.55 115.448 376.55 114.476H379.916C379.916 115.671 379.785 116.748 379.525 117.708C379.264 118.661 378.902 119.494 378.438 120.206C377.974 120.911 377.443 121.489 376.846 121.941C376.655 122.061 376.471 122.176 376.293 122.284C376.115 122.392 375.93 122.506 375.74 122.627C375.015 123.212 374.205 123.635 373.309 123.895C372.419 124.156 371.538 124.286 370.668 124.286ZM406.289 111.31H402.113C402.037 110.77 401.881 110.29 401.646 109.871C401.41 109.445 401.109 109.083 400.74 108.784C400.371 108.485 399.945 108.256 399.462 108.097C398.986 107.939 398.468 107.859 397.908 107.859C396.898 107.859 396.017 108.11 395.267 108.612C394.517 109.108 393.936 109.833 393.523 110.786C393.11 111.733 392.903 112.883 392.903 114.237C392.903 115.629 393.11 116.799 393.523 117.746C393.942 118.693 394.527 119.408 395.277 119.891C396.027 120.374 396.895 120.615 397.88 120.615C398.433 120.615 398.944 120.542 399.415 120.396C399.891 120.25 400.314 120.037 400.683 119.757C401.051 119.471 401.356 119.125 401.598 118.718C401.846 118.311 402.017 117.847 402.113 117.326L406.289 117.345C406.181 118.242 405.91 119.106 405.478 119.939C405.052 120.765 404.477 121.505 403.753 122.16C403.034 122.808 402.176 123.323 401.178 123.704C400.187 124.079 399.065 124.267 397.813 124.267C396.072 124.267 394.514 123.873 393.141 123.085C391.775 122.297 390.694 121.156 389.9 119.662C389.112 118.168 388.718 116.36 388.718 114.237C388.718 112.108 389.118 110.297 389.919 108.803C390.72 107.309 391.807 106.172 393.18 105.39C394.552 104.602 396.097 104.208 397.813 104.208C398.944 104.208 399.993 104.367 400.959 104.684C401.932 105.002 402.793 105.466 403.543 106.076C404.293 106.68 404.903 107.421 405.373 108.298C405.85 109.175 406.155 110.179 406.289 111.31ZM409.249 124V104.475H416.952C418.427 104.475 419.685 104.738 420.728 105.266C421.776 105.787 422.574 106.528 423.121 107.487C423.674 108.441 423.95 109.562 423.95 110.853C423.95 112.149 423.671 113.265 423.111 114.199C422.552 115.127 421.742 115.839 420.68 116.335C419.625 116.831 418.347 117.078 416.847 117.078H411.69V113.761H416.18C416.968 113.761 417.623 113.653 418.144 113.436C418.665 113.22 419.053 112.896 419.307 112.464C419.568 112.032 419.698 111.495 419.698 110.853C419.698 110.204 419.568 109.658 419.307 109.213C419.053 108.768 418.662 108.431 418.135 108.202C417.613 107.967 416.956 107.85 416.161 107.85H413.377V124H409.249ZM419.793 115.114L424.646 124H420.089L415.341 115.114H419.793ZM426.868 124V104.475H440.024V107.878H430.996V112.531H439.347V115.934H430.996V120.596H440.063V124H426.868ZM446.672 124H442.248L448.989 104.475H454.309L461.039 124H456.616L451.725 108.936H451.572L446.672 124ZM446.395 116.325H456.845V119.548H446.395V116.325ZM460.26 107.878V104.475H476.296V107.878H470.318V124H466.238V107.878H460.26ZM478.937 124V104.475H492.094V107.878H483.065V112.531H491.417V115.934H483.065V120.596H492.132V124H478.937ZM507.501 124.286C506.153 124.286 504.99 124.044 504.011 123.561C503.032 123.078 502.279 122.424 501.752 121.597C501.23 120.765 500.97 119.837 500.97 118.814C500.97 118.051 501.122 117.374 501.427 116.783C501.733 116.192 502.158 115.648 502.705 115.153C503.252 114.65 503.887 114.151 504.612 113.656L508.397 111.167C508.886 110.856 509.245 110.529 509.474 110.185C509.703 109.836 509.817 109.458 509.817 109.051C509.817 108.663 509.662 108.304 509.35 107.974C509.039 107.643 508.597 107.481 508.025 107.487C507.644 107.487 507.313 107.573 507.033 107.745C506.754 107.91 506.534 108.129 506.376 108.403C506.223 108.669 506.147 108.968 506.147 109.299C506.147 109.706 506.261 110.119 506.49 110.538C506.719 110.958 507.024 111.403 507.405 111.873C507.787 112.337 508.203 112.839 508.654 113.379L517.912 124H513.679L505.956 115.4C505.448 114.822 504.939 114.218 504.431 113.589C503.929 112.953 503.509 112.28 503.172 111.568C502.835 110.85 502.667 110.071 502.667 109.232C502.667 108.285 502.886 107.433 503.325 106.677C503.77 105.921 504.392 105.323 505.193 104.885C505.994 104.44 506.929 104.217 507.996 104.217C509.039 104.217 509.938 104.43 510.694 104.856C511.457 105.275 512.042 105.835 512.449 106.534C512.862 107.227 513.068 107.989 513.068 108.822C513.068 109.744 512.84 110.579 512.382 111.329C511.931 112.073 511.295 112.74 510.475 113.332L506.49 116.201C505.95 116.595 505.549 116.999 505.289 117.412C505.034 117.819 504.907 118.21 504.907 118.585C504.907 119.049 505.022 119.465 505.251 119.834C505.479 120.202 505.804 120.495 506.223 120.711C506.642 120.921 507.135 121.025 507.701 121.025C508.387 121.025 509.064 120.87 509.731 120.558C510.405 120.24 511.015 119.792 511.562 119.214C512.115 118.629 512.557 117.936 512.887 117.136C513.218 116.335 513.383 115.448 513.383 114.476H516.748C516.748 115.671 516.618 116.748 516.358 117.708C516.097 118.661 515.735 119.494 515.271 120.206C514.807 120.911 514.276 121.489 513.679 121.941C513.488 122.061 513.304 122.176 513.126 122.284C512.948 122.392 512.763 122.506 512.573 122.627C511.848 123.212 511.038 123.635 510.141 123.895C509.252 124.156 508.371 124.286 507.501 124.286ZM525.894 124V104.475H533.597C535.078 104.475 536.34 104.757 537.382 105.323C538.425 105.882 539.219 106.661 539.766 107.659C540.319 108.65 540.595 109.794 540.595 111.091C540.595 112.388 540.315 113.532 539.756 114.523C539.197 115.515 538.386 116.287 537.325 116.84C536.27 117.393 534.992 117.669 533.492 117.669H528.582V114.361H532.825C533.619 114.361 534.274 114.225 534.789 113.951C535.31 113.672 535.698 113.287 535.952 112.798C536.213 112.302 536.343 111.733 536.343 111.091C536.343 110.443 536.213 109.877 535.952 109.394C535.698 108.905 535.31 108.526 534.789 108.26C534.268 107.986 533.607 107.85 532.806 107.85H530.022V124H525.894ZM544.387 124H539.963L546.704 104.475H552.024L558.755 124H554.331L549.44 108.936H549.288L544.387 124ZM544.111 116.325H554.56V119.548H544.111V116.325ZM571.251 110.09C571.175 109.321 570.848 108.724 570.269 108.298C569.691 107.872 568.906 107.659 567.914 107.659C567.241 107.659 566.672 107.754 566.208 107.945C565.744 108.129 565.388 108.387 565.14 108.717C564.899 109.048 564.778 109.423 564.778 109.842C564.765 110.192 564.838 110.497 564.997 110.757C565.162 111.018 565.388 111.244 565.674 111.434C565.96 111.619 566.291 111.781 566.666 111.921C567.041 112.054 567.441 112.168 567.867 112.264L569.621 112.683C570.473 112.874 571.255 113.128 571.966 113.446C572.678 113.764 573.295 114.155 573.816 114.619C574.337 115.083 574.741 115.629 575.027 116.258C575.319 116.888 575.468 117.609 575.475 118.423C575.468 119.618 575.163 120.654 574.56 121.531C573.962 122.401 573.098 123.078 571.966 123.561C570.841 124.038 569.484 124.276 567.895 124.276C566.319 124.276 564.946 124.035 563.777 123.552C562.614 123.069 561.705 122.354 561.05 121.407C560.402 120.453 560.062 119.274 560.03 117.87H564.025C564.069 118.524 564.257 119.071 564.587 119.51C564.924 119.942 565.372 120.269 565.931 120.492C566.497 120.708 567.136 120.816 567.848 120.816C568.547 120.816 569.154 120.714 569.669 120.511C570.19 120.307 570.593 120.024 570.88 119.662C571.166 119.3 571.309 118.883 571.309 118.413C571.309 117.975 571.178 117.606 570.918 117.307C570.663 117.008 570.288 116.754 569.793 116.544C569.303 116.335 568.703 116.144 567.991 115.972L565.865 115.439C564.218 115.038 562.919 114.412 561.965 113.56C561.012 112.709 560.538 111.561 560.545 110.119C560.538 108.936 560.853 107.904 561.489 107.02C562.131 106.137 563.011 105.447 564.13 104.951C565.248 104.456 566.519 104.208 567.943 104.208C569.392 104.208 570.657 104.456 571.738 104.951C572.824 105.447 573.67 106.137 574.274 107.02C574.877 107.904 575.189 108.927 575.208 110.09H571.251ZM588.844 110.09C588.767 109.321 588.44 108.724 587.862 108.298C587.283 107.872 586.498 107.659 585.507 107.659C584.833 107.659 584.264 107.754 583.8 107.945C583.336 108.129 582.98 108.387 582.733 108.717C582.491 109.048 582.37 109.423 582.37 109.842C582.358 110.192 582.431 110.497 582.59 110.757C582.755 111.018 582.98 111.244 583.266 111.434C583.552 111.619 583.883 111.781 584.258 111.921C584.633 112.054 585.033 112.168 585.459 112.264L587.213 112.683C588.065 112.874 588.847 113.128 589.559 113.446C590.271 113.764 590.887 114.155 591.408 114.619C591.93 115.083 592.333 115.629 592.619 116.258C592.912 116.888 593.061 117.609 593.067 118.423C593.061 119.618 592.756 120.654 592.152 121.531C591.555 122.401 590.69 123.078 589.559 123.561C588.434 124.038 587.077 124.276 585.488 124.276C583.912 124.276 582.539 124.035 581.369 123.552C580.206 123.069 579.297 122.354 578.642 121.407C577.994 120.453 577.654 119.274 577.622 117.87H581.617C581.662 118.524 581.849 119.071 582.18 119.51C582.516 119.942 582.965 120.269 583.524 120.492C584.09 120.708 584.728 120.816 585.44 120.816C586.139 120.816 586.746 120.714 587.261 120.511C587.782 120.307 588.186 120.024 588.472 119.662C588.758 119.3 588.901 118.883 588.901 118.413C588.901 117.975 588.771 117.606 588.51 117.307C588.256 117.008 587.881 116.754 587.385 116.544C586.896 116.335 586.295 116.144 585.583 115.972L583.457 115.439C581.811 115.038 580.511 114.412 579.558 113.56C578.604 112.709 578.131 111.561 578.137 110.119C578.131 108.936 578.445 107.904 579.081 107.02C579.723 106.137 580.603 105.447 581.722 104.951C582.841 104.456 584.112 104.208 585.535 104.208C586.985 104.208 588.249 104.456 589.33 104.951C590.417 105.447 591.262 106.137 591.866 107.02C592.47 107.904 592.781 108.927 592.8 110.09H588.844ZM599.972 104.475V124H595.844V104.475H599.972ZM621.311 114.237C621.311 116.367 620.908 118.178 620.101 119.672C619.3 121.165 618.207 122.306 616.821 123.094C615.442 123.876 613.891 124.267 612.168 124.267C610.433 124.267 608.876 123.873 607.497 123.085C606.118 122.297 605.028 121.156 604.227 119.662C603.426 118.168 603.025 116.36 603.025 114.237C603.025 112.108 603.426 110.297 604.227 108.803C605.028 107.309 606.118 106.172 607.497 105.39C608.876 104.602 610.433 104.208 612.168 104.208C613.891 104.208 615.442 104.602 616.821 105.39C618.207 106.172 619.3 107.309 620.101 108.803C620.908 110.297 621.311 112.108 621.311 114.237ZM617.126 114.237C617.126 112.858 616.92 111.695 616.506 110.748C616.1 109.801 615.524 109.083 614.781 108.593C614.037 108.104 613.166 107.859 612.168 107.859C611.171 107.859 610.3 108.104 609.556 108.593C608.813 109.083 608.234 109.801 607.821 110.748C607.414 111.695 607.211 112.858 607.211 114.237C607.211 115.617 607.414 116.78 607.821 117.727C608.234 118.674 608.813 119.392 609.556 119.881C610.3 120.371 611.171 120.615 612.168 120.615C613.166 120.615 614.037 120.371 614.781 119.881C615.524 119.392 616.1 118.674 616.506 117.727C616.92 116.78 617.126 115.617 617.126 114.237ZM640.701 104.475V124H637.135L628.641 111.711H628.498V124H624.369V104.475H627.992L636.42 116.754H636.592V104.475H640.701Z" fill="white"/>
</svg>
